<svg width="2809" height="333" viewBox="0 0 2809 333" fill="none" xmlns="http://www.w3.org/2000/svg">
<g filter="url(#filter0_f_255_13)">
<path d="M2671.51 113.801C2635.14 105.419 2585.01 94.6567 2550.19 86.8844C2549.7 86.7727 2549.2 86.6612 2548.7 86.5498C2534.35 83.3428 2519.5 80.0022 2499.51 75.6091C2497.03 75.0647 2494.5 74.5096 2491.93 73.9469C2469.06 68.9444 2441.93 63.0747 2406.92 55.8855C2281.75 29.9041 2178.89 16.1317 2150.83 13.3315C2116.91 9.59799 2087.55 6.72568 2049.92 5.62051C2045.6 5.51229 2041.37 5.44695 2037.21 5.42699C2031.9 5.40018 2026.74 5.44804 2021.74 5.57512C2011.29 5.87939 2003.89 6.23335 1992.3 7.48257C1971.33 11.1365 1947.63 10.4765 1928.01 35.9591C1921.78 46.0492 1921.59 57.7952 1924.1 68.0978C1925.91 75.6824 1928.63 82.1181 1928.32 82.4631C1928.08 82.7957 1924.82 76.824 1922.88 69.0553C1920.32 58.9649 1920.13 47.0865 1925.98 36.6279C1926 36.5813 1926.03 36.5347 1926.05 36.4881C1945.59 9.07346 1970.58 9.97536 1991.07 6.19433C2003.17 4.85042 2010.11 4.52648 2020.52 4.18766C2025.46 4.04905 2030.54 3.98876 2035.76 4.00166C2040.53 4.01554 2044.24 4.06978 2048.59 4.1678C2085.48 5.18052 2114 7.89296 2147.92 11.5681C2176.1 14.2991 2281.79 28.3668 2410.05 55.0713C2445.14 62.2948 2472.99 68.325 2496.03 73.3773C2498.56 73.932 2501.04 74.4766 2503.45 75.0085C2503.51 75.0211 2503.57 75.0337 2503.62 75.0463C2524.08 79.5496 2537.36 82.5548 2551.38 85.6904C2551.68 85.7564 2551.98 85.8224 2552.27 85.8885C2587.55 93.7727 2636.98 104.387 2672.06 112.475C2678.65 113.99 2683.93 115.537 2683.77 115.902C2683.62 116.268 2678.09 115.314 2671.51 113.801ZM1523.92 76.7094C1560.09 83.6358 1607.92 94.8468 1649.1 108.422C1690.68 121.705 1726.23 139.442 1740.29 150.276C1753.65 160.182 1771.62 175.31 1767.58 195.964C1766.72 200.361 1764.33 205.622 1761.64 209.684C1751.32 225.035 1734.4 237.201 1713.44 249.264C1692.08 261.286 1672.71 269.754 1652.34 278.067C1605.01 297.087 1568.07 303.886 1539.5 307.588C1531.26 308.621 1523.51 309.362 1516.29 309.893C1516.28 309.894 1516.27 309.895 1516.26 309.896C1489.03 311.829 1468.45 311.262 1449.77 309.987C1416.36 307.497 1389.2 303.102 1357.05 296.005C1312.49 286.4 1250.09 267.621 1209.63 254.41C1207.42 253.699 1205.15 252.968 1202.86 252.223C1173.2 242.615 1137.73 230.453 1083.69 211.491C1038.8 195.757 999.9 182.221 965.07 170.765C954.952 167.433 945.569 164.395 936.424 161.489C913.252 154.127 892.449 147.873 872.733 142.324C750.116 108.123 677.454 98.33 631.454 91.7874C596.872 87.1762 576.243 85.194 562.419 83.8132C558.163 83.4016 554.387 83.0539 550.823 82.7496C518.716 80.0562 489.693 78.6997 453.885 78.357C445.799 78.2913 437.862 78.2868 429.381 78.3559C401.196 78.5928 378.887 79.7977 362.834 80.8927C355.625 81.3867 349.244 81.8892 343.204 82.3982C343.092 82.4078 342.981 82.4174 342.869 82.427C342.027 82.4982 341.19 82.5691 340.359 82.6407C339.733 82.6946 339.107 82.7505 338.479 82.8052C338.233 82.8317 338.012 82.8538 337.847 82.871C337.717 82.8845 337.615 82.895 337.549 82.9016C337.537 82.9032 337.525 82.9047 337.512 82.9063C336.324 83.028 335.301 83.1218 335.09 83.1412C334.724 83.1749 334.398 83.2033 334.232 83.2181C333.354 83.2963 332.22 83.3939 331.467 83.4588C329.53 83.6265 326.163 83.9142 320.93 84.3943C316.396 84.8263 311.918 85.2848 306.548 85.8669C306.215 85.9032 305.882 85.9397 305.549 85.9762C300.391 86.5409 294.338 87.2241 286.691 88.1393C279.736 88.9705 273.251 89.4858 272.263 89.2156C271.275 88.947 276.173 87.979 283.149 87.1274C290.372 86.247 296.059 85.588 301.236 85.0068C301.564 84.9699 301.892 84.9331 302.22 84.8964C307.526 84.3046 312.92 83.7338 318.599 83.186C320.505 83.0021 322.467 82.8188 324.298 82.6525C327.593 82.3442 331.333 81.9937 335.792 81.596C336.687 81.5162 337.61 81.4357 338.553 81.3533C344.603 80.8248 351.621 80.248 359.483 79.6923C377.449 78.4271 402.041 77.0887 432.717 76.9027C440.749 76.856 448.633 76.8728 456.512 76.9522C492.365 77.3479 523.865 78.8562 557.753 81.8806C562.368 82.2975 566.776 82.7307 571.47 83.2145C585.749 84.7233 602.852 86.4768 635.027 90.8295C678.823 97.1919 749.912 106.689 871.916 140.621C892.637 146.435 914.852 153.129 938.402 160.631C947.346 163.479 956.445 166.429 965.938 169.556C1000.26 180.854 1037.85 193.925 1081.3 209.141C1134.08 227.648 1168.75 239.574 1198.1 249.145C1199.11 249.475 1200.12 249.804 1201.13 250.131C1202.38 250.539 1203.62 250.942 1204.85 251.341C1247.88 265.469 1314.2 285.677 1363.41 295.907C1394.08 302.424 1420.15 306.521 1453.23 308.788C1469.47 309.768 1487.01 310.368 1513.63 308.657C1521.1 308.149 1529.34 307.412 1538.42 306.293C1567.25 302.623 1604.42 295.799 1651.81 276.753C1672.53 268.302 1692.62 259.479 1714.05 247.279C1734.42 235.397 1750.25 223.919 1760.37 209.02C1763.07 204.979 1765.47 199.72 1766.26 195.324C1770.17 175.609 1751.33 159.367 1734.89 148.297C1721.22 138.627 1687.21 121.99 1646.75 109.151C1606.18 95.9297 1562.1 85.6798 1530.31 79.4485C1526.99 78.7982 1523.64 78.1486 1520.27 77.5078C1491.61 72.0364 1462.1 67.1704 1438.28 63.9231C1363.62 54.9406 1243.49 37.2642 1137.82 34.5525H1136.59C1099 33.9351 1041.47 56.579 1048.9 81.4738C1049.27 82.6669 1049.65 83.6294 1050.17 84.7201C1151.91 172.735 1280.63 175.934 1310.75 188.368C1312.49 188.755 1314.09 189.107 1315.53 189.423C1316.79 189.703 1318.03 189.973 1318.96 190.176C1332.81 193.202 1345.63 195.847 1359.58 198.631C1360.34 198.782 1361.1 198.934 1361.87 199.086C1377.55 202.196 1390.73 204.719 1408.98 208.155C1476.05 220.69 1529.17 229.018 1577.83 236.332C1587.37 237.757 1594.72 238.837 1603.01 240.042C1603.04 240.046 1603.06 240.049 1603.09 240.053C1638.46 245.193 1673.06 249.913 1702.32 253.801C1759.1 261.325 1795.85 265.662 1825.74 269.152C1835.11 270.239 1843.84 271.238 1852.15 272.18C1855.4 272.548 1858.58 272.907 1861.72 273.259C1876.77 274.952 1889.55 276.181 1901.81 277.192C1914.74 278.269 1930.91 279.266 1944.26 279.604C1951.06 279.783 1956.97 279.838 1963.31 279.775C1970.85 279.7 1977.73 279.437 1984.01 279.008C1986.25 278.855 1988.42 278.682 1990.51 278.488C2018.1 275.858 2049.06 268.653 2041.78 245.906C2040.39 239.965 2038.61 235.704 2038.89 235.257C2039.2 235.117 2041.57 239.082 2043.06 245.149C2050.69 269.122 2020.36 276.882 1992.49 279.726C1990.42 279.934 1988.26 280.124 1986.03 280.292C1979.85 280.756 1973.05 281.058 1965.56 281.17C1958.17 281.271 1952.98 281.228 1945.97 281.07C1932.72 280.781 1915.7 279.762 1902.72 278.69C1890.17 277.665 1877.33 276.445 1861.56 274.672C1859.38 274.427 1857.17 274.178 1854.92 273.924C1846.49 272.972 1837.49 271.946 1827.61 270.799C1797.15 267.25 1760.06 262.88 1702.64 255.276C1673.68 251.427 1639.63 246.788 1604.17 241.644C1595.85 240.436 1588.25 239.323 1578.82 237.916C1529.93 230.577 1476.54 222.218 1409.11 209.621C1391.76 206.357 1379.51 204.024 1363.87 200.935C1363.04 200.77 1362.21 200.605 1361.38 200.441C1347.49 197.679 1333.87 194.884 1319.22 191.686C1317.28 191.261 1314.33 190.614 1311.07 189.889C1280.66 177.168 1151.97 175.026 1048.76 85.0494C1048.62 84.74 1048.48 84.4345 1048.36 84.1329C1039.87 65.194 1066.62 50.172 1084.29 43.2921C1103.28 35.9782 1122.34 32.313 1136.69 32.917H1137.72C1162.51 32.4449 1185.23 34.5984 1203.97 35.7895C1237.5 38.2295 1262.03 40.788 1282.74 43.0457C1286.55 43.4649 1290.21 43.8739 1293.72 44.2744C1309.19 46.043 1320.76 47.4571 1332.89 48.912C1369.04 53.2862 1395.12 56.6086 1426.48 60.7134C1453.14 64.2139 1485.63 69.5051 1513.86 74.8029C1513.91 74.8108 1513.95 74.8187 1513.99 74.8266C1517.3 75.4446 1520.68 76.0875 1523.92 76.7094ZM185.677 103.866C178.612 105.115 172.841 105.868 172.834 105.47C172.834 105.073 178.612 103.674 185.686 102.425C202.54 99.4453 219.188 96.7707 235.632 94.3873C242.829 93.3429 248.623 92.8784 248.61 93.2739C248.594 93.672 242.756 94.7842 235.586 95.8264C219.154 98.2108 202.519 100.886 185.677 103.866ZM1496.28 64.0202C1503.11 65.2442 1509.82 66.8268 1511.28 67.5101C1512.73 68.1921 1508.42 67.704 1501.62 66.463C1498.02 65.8075 1492.09 64.7413 1484.08 63.359C1432.31 54.8736 1293.05 31.003 1137.33 26.5008H1137.08C1120.85 25.957 1103.47 29.9597 1087.45 35.5453C1073.67 40.5153 1061.74 46.607 1052.62 54.7338C1042.72 63.1519 1037.78 76.0022 1043.56 87.0931C1048.88 98.1972 1060.05 107.219 1072.23 115.079C1097.69 131.134 1132.04 145.183 1181.36 160.71C1401.35 224.753 1631.39 252.42 1860.84 280.801C1914.32 286.465 1964.35 292.306 2014.37 283.181C2017.34 282.525 2019.89 281.873 2022.68 281.03C2026.17 279.971 2029.29 278.801 2032.06 277.534C2034.88 276.228 2037.05 275.03 2039.49 273.341C2042.26 271.401 2044.44 269.319 2046.13 267.113C2053.48 258.192 2051.16 244.137 2046.38 233.322C2036.15 210.343 2019.14 190.344 2002.94 170.495C1986.65 150.823 1969.45 131.308 1954.29 110.348C1941.05 90.1975 1919.43 63.7562 1935.65 37.5433C1979.6 1.19389 2033.8 13.7066 2086.29 14.4344C2208.63 23.7147 2334.16 48.1231 2456.73 72.8562C2562.12 94.0619 2744.05 136.868 2792.04 148.528C2799.29 150.259 2805.1 151.979 2804.93 152.342C2804.76 152.704 2798.69 151.574 2791.45 149.844C2743.83 138.273 2562.42 95.5898 2457.51 74.4643C2335.23 49.7659 2210.1 25.4226 2087.84 15.9667C2035.58 14.8266 1980.81 3.64792 1937.75 37.266C1920.67 61.2259 1941.52 88.3821 1954.83 108.42C1969.94 129.423 1987.18 148.933 2003.58 168.674C2019.92 188.605 2037.03 208.55 2047.73 231.942C2052.63 242.76 2055.69 257.775 2047.94 267.76C2046.2 270.165 2043.93 272.41 2041.1 274.479C2038.3 276.48 2036.27 277.602 2033.34 279.005C2030.52 280.334 2027.36 281.555 2023.83 282.658C2020.65 283.642 2018.31 284.245 2015.25 284.943C1964.6 294.421 1914.33 288.558 1860.59 282.99C1630.75 255.004 1400.44 227.841 1179.84 163.523C1130.88 148.073 1097.21 133.813 1071.98 117.631C1060.18 109.905 1048.67 100.612 1042.83 89.4504C1036.3 78.2051 1040.19 64.1195 1049.99 55.2508C1059 46.5546 1071.05 40.167 1085 34.9231C1101.8 28.8433 1119.86 24.5377 1137.17 25.0767H1137.24C1289.91 29.3898 1425.87 52.4741 1478.01 60.8397C1486.23 62.2327 1492.47 63.3373 1496.28 64.0202ZM1773.17 203.633C1754.78 243.339 1702.92 265.028 1655.35 285.447C1610.24 303.987 1560.38 315.194 1513.24 317.969C1465.15 321.018 1420.4 316.173 1385.1 310.226C1330.44 300.666 1297.19 290.399 1263.96 280.316C1263.6 280.205 1263.24 280.094 1262.88 279.982C1230.24 269.777 1197.07 258.464 1144.34 239.776C1091.01 220.955 1017.13 193.867 941.937 170.18C941.878 170.161 941.82 170.143 941.761 170.124C866.89 146.298 789.351 127.562 732.77 116.575C535.568 78.3372 409.973 88.0437 347.885 90.7784C238.501 97.0035 115.656 121.851 7.70865 151.398C-4.57447 154.571 15.7568 147.445 37.9207 141.822C38.7206 141.616 39.5201 141.41 40.3191 141.206C47.9261 139.258 54.5553 137.588 63.821 135.289C77.2131 131.942 87.0877 129.573 96.6411 127.334C120.848 119.585 291.17 89.7672 352.835 89.0367C411.813 86.7926 534.979 75.0906 733.937 113.608C789.61 124.46 865.292 144.373 940.612 168.272C940.817 168.336 941.022 168.401 941.227 168.465C1015.95 191.953 1090.51 219.265 1144.75 238.413C1199.43 257.799 1233.97 269.532 1267.14 279.8C1267.47 279.901 1267.8 280.002 1268.13 280.103C1300.91 289.969 1332.78 299.641 1385.26 308.816C1421.26 314.888 1466.45 319.676 1514.68 316.453C1561.35 313.543 1610.39 302.38 1654.82 284.134C1702.04 264.002 1752.98 242.103 1771.41 204.246C1774.25 197.335 1774.54 191.545 1774.96 191.087C1775.31 190.825 1775.85 196.507 1773.17 203.633ZM1780.66 208.693C1752.37 258.96 1702.88 274.056 1658.98 294.338C1488.15 368.475 1301.59 307.892 1142.99 250.12C1088.97 231.077 1013.86 203.147 938.35 179.029C937.5 178.757 936.65 178.485 935.799 178.214C860.983 154.16 785.183 134.984 730.07 124.312C533.849 86.4065 408.612 96.9199 346.913 99.7052C288.015 103.699 273.522 106.269 249.165 109.436C248.51 109.527 247.855 109.618 247.199 109.71C247.156 109.717 247.113 109.725 247.07 109.732C246.247 109.866 245.555 109.975 245.199 110.03C244.473 110.142 243.881 110.23 243.659 110.263C243.146 110.34 242.716 110.402 242.562 110.424C241.936 110.515 241.219 110.619 240.757 110.685C236.417 111.298 223.639 113.163 213.228 114.81C202.605 116.483 194.961 117.734 186.867 119.097C186.047 119.236 185.227 119.375 184.407 119.514C177.19 120.745 168.805 122.218 157.801 124.3C151.049 125.579 146.153 126.225 146.909 125.673C147.67 125.122 153.785 123.596 160.528 122.333C172.425 120.102 181.106 118.607 188.393 117.383C189.207 117.246 190.02 117.111 190.832 116.976C198.569 115.694 205.318 114.605 214.737 113.134C228.405 110.975 238.188 109.543 247.892 108.18C273.081 104.891 290.29 101.92 351.818 97.9629C410.465 95.6811 532.559 84.8805 730.272 122.907C785.537 133.605 861.487 152.83 936.279 176.879C937.154 177.158 938.029 177.437 938.902 177.716C1014.49 201.865 1089.51 229.766 1143.39 248.758C1305.47 306.566 1488.49 364.255 1658 291.927C1701.46 272.258 1749.96 257.328 1778.77 209.493C1791.17 185.062 1774.46 158.414 1759.1 146.519C1743.03 133 1726.5 124.679 1710.28 117.163C1613.34 76.5998 1534.31 64.7631 1460.28 51.5951C1443.93 48.9599 1401.29 41.7378 1339.19 33.869C1320.92 31.5559 1300.67 29.1587 1279.55 26.9037C1237.69 22.8012 1190.96 17.0203 1136.76 17.1012H1137.65C1121.63 16.4906 1106.21 19.771 1090.88 24.4229C1076.12 29.1046 1063.24 34.8875 1052.02 43.0468C1040.58 51.1996 1028.34 65.8844 1032.21 83.2318C1036.21 99.6916 1047.98 109.789 1061.04 119.433C1086.66 137.348 1121.25 152.131 1170.91 168.234C1293.02 208.386 1505.36 243.405 1617.67 259.58C1675.88 268.064 1705.77 272.005 1729.23 275.177C1735.64 276.037 1741.34 276.796 1746.6 277.491C1760.8 279.364 1770.09 280.577 1783.51 282.271C1809.78 285.578 1834.72 288.588 1859.6 291.485C1894.48 295.459 1923.22 297.964 1956.18 298.294C1962.66 298.352 1974.14 298.189 1982.34 297.68C1991.14 297.132 1998.44 296.547 2009.17 294.758C2024.74 291.379 2053.34 287.491 2060.39 259.665C2062.1 250.238 2060.43 243.893 2060.78 242.962C2060.91 242.373 2063.21 248.065 2062.2 257.382C2057.31 287.393 2025.97 292.597 2011.17 295.847C2006.57 296.708 2000.51 297.526 1996.46 297.952C1992.43 298.388 1988.24 298.74 1983.89 299.011C1975.69 299.558 1964.17 299.767 1957.31 299.721C1924.25 299.468 1894.79 296.926 1859.44 292.894C1834.35 289.974 1809.19 286.937 1782.73 283.601C1768.8 281.844 1758.51 280.499 1744.16 278.602C1738.99 277.917 1733.5 277.184 1727.42 276.369C1704.42 273.253 1674.71 269.333 1616.88 260.899C1504.78 244.748 1292.67 209.729 1170.79 169.685C1121.53 153.732 1087.33 139.169 1061.53 121.515C1048.47 112.056 1036.84 102.586 1031.49 86.1947C1025.88 68.8605 1037.58 51.9452 1049.14 43.4528C1060.4 34.731 1073.38 28.701 1088.31 23.7503C1104.44 18.649 1120.66 15.0572 1137.74 15.6811H1136.67C1190.39 15.5701 1236.44 21.2632 1277.82 25.2877C1299.03 27.5402 1319.22 29.919 1337.37 32.2045C1400.86 40.2306 1440.81 47.0392 1454.89 49.2526C1531.67 62.7097 1613.98 74.9983 1712.13 116.448C1728.01 123.867 1744.67 132.39 1760.37 145.742C1775.55 157.654 1792.26 184.06 1780.66 208.693ZM2080.28 24.9521C2072.61 24.467 2066.42 23.8689 2065.93 23.4522C2065.45 23.0406 2070.81 22.9486 2078.41 23.4116C2112.98 25.5133 2144.79 29.2863 2162.28 31.4045C2199.16 35.9897 2221.31 39.3974 2246.61 43.4257C2264.04 46.2306 2282.21 49.301 2301.03 52.6187C2318.22 55.6505 2334 58.5301 2351.05 61.7242C2367.92 64.8875 2385.14 68.2018 2402.57 71.636C2418.41 74.7582 2433.09 77.7093 2448.41 80.8361C2555 102.679 2635.13 121.096 2679 131.166C2685.64 132.699 2690.96 134.26 2690.8 134.625C2690.64 134.99 2685.07 134.023 2678.44 132.492C2634.91 122.499 2555.28 104.198 2449.18 82.4398C2433.88 79.313 2418.95 76.3104 2403.36 73.2355C2385.86 69.7861 2368.58 66.4555 2351.63 63.2751C2334.53 60.0697 2318.53 57.1475 2301.46 54.1342C2282.53 50.7947 2264.24 47.7029 2246.7 44.8781C2222.02 40.948 2201.48 37.7684 2165.03 33.1765C2147.31 31.0039 2115.41 27.1651 2080.28 24.9521Z" fill="#E5D308"/>
<path d="M2671.51 113.801C2635.14 105.419 2585.01 94.6567 2550.19 86.8844C2549.7 86.7727 2549.2 86.6612 2548.7 86.5498C2534.35 83.3428 2519.5 80.0022 2499.51 75.6091C2497.03 75.0647 2494.5 74.5096 2491.93 73.9469C2469.06 68.9444 2441.93 63.0747 2406.92 55.8855C2281.75 29.9041 2178.89 16.1317 2150.83 13.3315C2116.91 9.59799 2087.55 6.72568 2049.92 5.62051C2045.6 5.51229 2041.37 5.44695 2037.21 5.42699C2031.9 5.40018 2026.74 5.44804 2021.74 5.57512C2011.29 5.87939 2003.89 6.23335 1992.3 7.48257C1971.33 11.1365 1947.63 10.4765 1928.01 35.9591C1921.78 46.0492 1921.59 57.7952 1924.1 68.0978C1925.91 75.6824 1928.63 82.1181 1928.32 82.4631C1928.08 82.7957 1924.82 76.824 1922.88 69.0553C1920.32 58.9649 1920.13 47.0865 1925.98 36.6279C1926 36.5813 1926.03 36.5347 1926.05 36.4881C1945.59 9.07346 1970.58 9.97536 1991.07 6.19433C2003.17 4.85042 2010.11 4.52648 2020.52 4.18766C2025.46 4.04905 2030.54 3.98876 2035.76 4.00166C2040.53 4.01554 2044.24 4.06978 2048.59 4.1678C2085.48 5.18052 2114 7.89296 2147.92 11.5681C2176.1 14.2991 2281.79 28.3668 2410.05 55.0713C2445.14 62.2948 2472.99 68.325 2496.03 73.3773C2498.56 73.932 2501.04 74.4766 2503.45 75.0085C2503.51 75.0211 2503.57 75.0337 2503.62 75.0463C2524.08 79.5496 2537.36 82.5548 2551.38 85.6904C2551.68 85.7564 2551.98 85.8224 2552.27 85.8885C2587.55 93.7727 2636.98 104.387 2672.06 112.475C2678.65 113.99 2683.93 115.537 2683.77 115.902C2683.62 116.268 2678.09 115.314 2671.51 113.801ZM1523.92 76.7094C1560.09 83.6358 1607.92 94.8468 1649.1 108.422C1690.68 121.705 1726.23 139.442 1740.29 150.276C1753.65 160.182 1771.62 175.31 1767.58 195.964C1766.72 200.361 1764.33 205.622 1761.64 209.684C1751.32 225.035 1734.4 237.201 1713.44 249.264C1692.08 261.286 1672.71 269.754 1652.34 278.067C1605.01 297.087 1568.07 303.886 1539.5 307.588C1531.26 308.621 1523.51 309.362 1516.29 309.893C1516.28 309.894 1516.27 309.895 1516.26 309.896C1489.03 311.829 1468.45 311.262 1449.77 309.987C1416.36 307.497 1389.2 303.102 1357.05 296.005C1312.49 286.4 1250.09 267.621 1209.63 254.41C1207.42 253.699 1205.15 252.968 1202.86 252.223C1173.2 242.615 1137.73 230.453 1083.69 211.491C1038.8 195.757 999.9 182.221 965.07 170.765C954.952 167.433 945.569 164.395 936.424 161.489C913.252 154.127 892.449 147.873 872.733 142.324C750.116 108.123 677.454 98.33 631.454 91.7874C596.872 87.1762 576.243 85.194 562.419 83.8132C558.163 83.4016 554.387 83.0539 550.823 82.7496C518.716 80.0562 489.693 78.6997 453.885 78.357C445.799 78.2913 437.862 78.2868 429.381 78.3559C401.196 78.5928 378.887 79.7977 362.834 80.8927C355.625 81.3867 349.244 81.8892 343.204 82.3982C343.092 82.4078 342.981 82.4174 342.869 82.427C342.027 82.4982 341.19 82.5691 340.359 82.6407C339.733 82.6946 339.107 82.7505 338.479 82.8052C338.233 82.8317 338.012 82.8538 337.847 82.871C337.717 82.8845 337.615 82.895 337.549 82.9016C337.537 82.9032 337.525 82.9047 337.512 82.9063C336.324 83.028 335.301 83.1218 335.09 83.1412C334.724 83.1749 334.398 83.2033 334.232 83.2181C333.354 83.2963 332.22 83.3939 331.467 83.4588C329.53 83.6265 326.163 83.9142 320.93 84.3943C316.396 84.8263 311.918 85.2848 306.548 85.8669C306.215 85.9032 305.882 85.9397 305.549 85.9762C300.391 86.5409 294.338 87.2241 286.691 88.1393C279.736 88.9705 273.251 89.4858 272.263 89.2156C271.275 88.947 276.173 87.979 283.149 87.1274C290.372 86.247 296.059 85.588 301.236 85.0068C301.564 84.9699 301.892 84.9331 302.22 84.8964C307.526 84.3046 312.92 83.7338 318.599 83.186C320.505 83.0021 322.467 82.8188 324.298 82.6525C327.593 82.3442 331.333 81.9937 335.792 81.596C336.687 81.5162 337.61 81.4357 338.553 81.3533C344.603 80.8248 351.621 80.248 359.483 79.6923C377.449 78.4271 402.041 77.0887 432.717 76.9027C440.749 76.856 448.633 76.8728 456.512 76.9522C492.365 77.3479 523.865 78.8562 557.753 81.8806C562.368 82.2975 566.776 82.7307 571.47 83.2145C585.749 84.7233 602.852 86.4768 635.027 90.8295C678.823 97.1919 749.912 106.689 871.916 140.621C892.637 146.435 914.852 153.129 938.402 160.631C947.346 163.479 956.445 166.429 965.938 169.556C1000.26 180.854 1037.85 193.925 1081.3 209.141C1134.08 227.648 1168.75 239.574 1198.1 249.145C1199.11 249.475 1200.12 249.804 1201.13 250.131C1202.38 250.539 1203.62 250.942 1204.85 251.341C1247.88 265.469 1314.2 285.677 1363.41 295.907C1394.08 302.424 1420.15 306.521 1453.23 308.788C1469.47 309.768 1487.01 310.368 1513.63 308.657C1521.1 308.149 1529.34 307.412 1538.42 306.293C1567.25 302.623 1604.42 295.799 1651.81 276.753C1672.53 268.302 1692.62 259.479 1714.05 247.279C1734.42 235.397 1750.25 223.919 1760.37 209.02C1763.07 204.979 1765.47 199.72 1766.26 195.324C1770.17 175.609 1751.33 159.367 1734.89 148.297C1721.22 138.627 1687.21 121.99 1646.75 109.151C1606.18 95.9297 1562.1 85.6798 1530.31 79.4485C1526.99 78.7982 1523.64 78.1486 1520.27 77.5078C1491.61 72.0364 1462.1 67.1704 1438.28 63.9231C1363.62 54.9406 1243.49 37.2642 1137.82 34.5525H1136.59C1099 33.9351 1041.47 56.579 1048.9 81.4738C1049.27 82.6669 1049.65 83.6294 1050.17 84.7201C1151.91 172.735 1280.63 175.934 1310.75 188.368C1312.49 188.755 1314.09 189.107 1315.53 189.423C1316.79 189.703 1318.03 189.973 1318.96 190.176C1332.81 193.202 1345.63 195.847 1359.58 198.631C1360.34 198.782 1361.1 198.934 1361.87 199.086C1377.55 202.196 1390.73 204.719 1408.98 208.155C1476.05 220.69 1529.17 229.018 1577.83 236.332C1587.37 237.757 1594.72 238.837 1603.01 240.042C1603.04 240.046 1603.06 240.049 1603.09 240.053C1638.46 245.193 1673.06 249.913 1702.32 253.801C1759.1 261.325 1795.85 265.662 1825.74 269.152C1835.11 270.239 1843.84 271.238 1852.15 272.18C1855.4 272.548 1858.58 272.907 1861.72 273.259C1876.77 274.952 1889.55 276.181 1901.81 277.192C1914.74 278.269 1930.91 279.266 1944.26 279.604C1951.06 279.783 1956.97 279.838 1963.31 279.775C1970.85 279.7 1977.73 279.437 1984.01 279.008C1986.25 278.855 1988.42 278.682 1990.51 278.488C2018.1 275.858 2049.06 268.653 2041.78 245.906C2040.39 239.965 2038.61 235.704 2038.89 235.257C2039.2 235.117 2041.57 239.082 2043.06 245.149C2050.69 269.122 2020.36 276.882 1992.49 279.726C1990.42 279.934 1988.26 280.124 1986.03 280.292C1979.85 280.756 1973.05 281.058 1965.56 281.17C1958.17 281.271 1952.98 281.228 1945.97 281.07C1932.72 280.781 1915.7 279.762 1902.72 278.69C1890.17 277.665 1877.33 276.445 1861.56 274.672C1859.38 274.427 1857.17 274.178 1854.92 273.924C1846.49 272.972 1837.49 271.946 1827.61 270.799C1797.15 267.25 1760.06 262.88 1702.64 255.276C1673.68 251.427 1639.63 246.788 1604.17 241.644C1595.85 240.436 1588.25 239.323 1578.82 237.916C1529.93 230.577 1476.54 222.218 1409.11 209.621C1391.76 206.357 1379.51 204.024 1363.87 200.935C1363.04 200.77 1362.21 200.605 1361.38 200.441C1347.49 197.679 1333.87 194.884 1319.22 191.686C1317.28 191.261 1314.33 190.614 1311.07 189.889C1280.66 177.168 1151.97 175.026 1048.76 85.0494C1048.62 84.74 1048.48 84.4345 1048.36 84.1329C1039.87 65.194 1066.62 50.172 1084.29 43.2921C1103.28 35.9782 1122.34 32.313 1136.69 32.917H1137.72C1162.51 32.4449 1185.23 34.5984 1203.97 35.7895C1237.5 38.2295 1262.03 40.788 1282.74 43.0457C1286.55 43.4649 1290.21 43.8739 1293.72 44.2744C1309.19 46.043 1320.76 47.4571 1332.89 48.912C1369.04 53.2862 1395.12 56.6086 1426.48 60.7134C1453.14 64.2139 1485.63 69.5051 1513.86 74.8029C1513.91 74.8108 1513.95 74.8187 1513.99 74.8266C1517.3 75.4446 1520.68 76.0875 1523.92 76.7094ZM185.677 103.866C178.612 105.115 172.841 105.868 172.834 105.47C172.834 105.073 178.612 103.674 185.686 102.425C202.54 99.4453 219.188 96.7707 235.632 94.3873C242.829 93.3429 248.623 92.8784 248.61 93.2739C248.594 93.672 242.756 94.7842 235.586 95.8264C219.154 98.2108 202.519 100.886 185.677 103.866ZM1496.28 64.0202C1503.11 65.2442 1509.82 66.8268 1511.28 67.5101C1512.73 68.1921 1508.42 67.704 1501.62 66.463C1498.02 65.8075 1492.09 64.7413 1484.08 63.359C1432.31 54.8736 1293.05 31.003 1137.33 26.5008H1137.08C1120.85 25.957 1103.47 29.9597 1087.45 35.5453C1073.67 40.5153 1061.74 46.607 1052.62 54.7338C1042.72 63.1519 1037.78 76.0022 1043.56 87.0931C1048.88 98.1972 1060.05 107.219 1072.23 115.079C1097.69 131.134 1132.04 145.183 1181.36 160.71C1401.35 224.753 1631.39 252.42 1860.84 280.801C1914.32 286.465 1964.35 292.306 2014.37 283.181C2017.34 282.525 2019.89 281.873 2022.68 281.03C2026.17 279.971 2029.29 278.801 2032.06 277.534C2034.88 276.228 2037.05 275.03 2039.49 273.341C2042.26 271.401 2044.44 269.319 2046.13 267.113C2053.48 258.192 2051.16 244.137 2046.38 233.322C2036.15 210.343 2019.14 190.344 2002.94 170.495C1986.65 150.823 1969.45 131.308 1954.29 110.348C1941.05 90.1975 1919.43 63.7562 1935.65 37.5433C1979.6 1.19389 2033.8 13.7066 2086.29 14.4344C2208.63 23.7147 2334.16 48.1231 2456.73 72.8562C2562.12 94.0619 2744.05 136.868 2792.04 148.528C2799.29 150.259 2805.1 151.979 2804.93 152.342C2804.76 152.704 2798.69 151.574 2791.45 149.844C2743.83 138.273 2562.42 95.5898 2457.51 74.4643C2335.23 49.7659 2210.1 25.4226 2087.84 15.9667C2035.58 14.8266 1980.81 3.64792 1937.75 37.266C1920.67 61.2259 1941.52 88.3821 1954.83 108.42C1969.94 129.423 1987.18 148.933 2003.58 168.674C2019.92 188.605 2037.03 208.55 2047.73 231.942C2052.63 242.76 2055.69 257.775 2047.94 267.76C2046.2 270.165 2043.93 272.41 2041.1 274.479C2038.3 276.48 2036.27 277.602 2033.34 279.005C2030.52 280.334 2027.36 281.555 2023.83 282.658C2020.65 283.642 2018.31 284.245 2015.25 284.943C1964.6 294.421 1914.33 288.558 1860.59 282.99C1630.75 255.004 1400.44 227.841 1179.84 163.523C1130.88 148.073 1097.21 133.813 1071.98 117.631C1060.18 109.905 1048.67 100.612 1042.83 89.4504C1036.3 78.2051 1040.19 64.1195 1049.99 55.2508C1059 46.5546 1071.05 40.167 1085 34.9231C1101.8 28.8433 1119.86 24.5377 1137.17 25.0767H1137.24C1289.91 29.3898 1425.87 52.4741 1478.01 60.8397C1486.23 62.2327 1492.47 63.3373 1496.28 64.0202ZM1773.17 203.633C1754.78 243.339 1702.92 265.028 1655.35 285.447C1610.24 303.987 1560.38 315.194 1513.24 317.969C1465.15 321.018 1420.4 316.173 1385.1 310.226C1330.44 300.666 1297.19 290.399 1263.96 280.316C1263.6 280.205 1263.24 280.094 1262.88 279.982C1230.24 269.777 1197.07 258.464 1144.34 239.776C1091.01 220.955 1017.13 193.867 941.937 170.18C941.878 170.161 941.82 170.143 941.761 170.124C866.89 146.298 789.351 127.562 732.77 116.575C535.568 78.3372 409.973 88.0437 347.885 90.7784C238.501 97.0035 115.656 121.851 7.70865 151.398C-4.57447 154.571 15.7568 147.445 37.9207 141.822C38.7206 141.616 39.5201 141.41 40.3191 141.206C47.9261 139.258 54.5553 137.588 63.821 135.289C77.2131 131.942 87.0877 129.573 96.6411 127.334C120.848 119.585 291.17 89.7672 352.835 89.0367C411.813 86.7926 534.979 75.0906 733.937 113.608C789.61 124.46 865.292 144.373 940.612 168.272C940.817 168.336 941.022 168.401 941.227 168.465C1015.95 191.953 1090.51 219.265 1144.75 238.413C1199.43 257.799 1233.97 269.532 1267.14 279.8C1267.47 279.901 1267.8 280.002 1268.13 280.103C1300.91 289.969 1332.78 299.641 1385.26 308.816C1421.26 314.888 1466.45 319.676 1514.68 316.453C1561.35 313.543 1610.39 302.38 1654.82 284.134C1702.04 264.002 1752.98 242.103 1771.41 204.246C1774.25 197.335 1774.54 191.545 1774.96 191.087C1775.31 190.825 1775.85 196.507 1773.17 203.633ZM1780.66 208.693C1752.37 258.96 1702.88 274.056 1658.98 294.338C1488.15 368.475 1301.59 307.892 1142.99 250.12C1088.97 231.077 1013.86 203.147 938.35 179.029C937.5 178.757 936.65 178.485 935.799 178.214C860.983 154.16 785.183 134.984 730.07 124.312C533.849 86.4065 408.612 96.9199 346.913 99.7052C288.015 103.699 273.522 106.269 249.165 109.436C248.51 109.527 247.855 109.618 247.199 109.71C247.156 109.717 247.113 109.725 247.07 109.732C246.247 109.866 245.555 109.975 245.199 110.03C244.473 110.142 243.881 110.23 243.659 110.263C243.146 110.34 242.716 110.402 242.562 110.424C241.936 110.515 241.219 110.619 240.757 110.685C236.417 111.298 223.639 113.163 213.228 114.81C202.605 116.483 194.961 117.734 186.867 119.097C186.047 119.236 185.227 119.375 184.407 119.514C177.19 120.745 168.805 122.218 157.801 124.3C151.049 125.579 146.153 126.225 146.909 125.673C147.67 125.122 153.785 123.596 160.528 122.333C172.425 120.102 181.106 118.607 188.393 117.383C189.207 117.246 190.02 117.111 190.832 116.976C198.569 115.694 205.318 114.605 214.737 113.134C228.405 110.975 238.188 109.543 247.892 108.18C273.081 104.891 290.29 101.92 351.818 97.9629C410.465 95.6811 532.559 84.8805 730.272 122.907C785.537 133.605 861.487 152.83 936.279 176.879C937.154 177.158 938.029 177.437 938.902 177.716C1014.49 201.865 1089.51 229.766 1143.39 248.758C1305.47 306.566 1488.49 364.255 1658 291.927C1701.46 272.258 1749.96 257.328 1778.77 209.493C1791.17 185.062 1774.46 158.414 1759.1 146.519C1743.03 133 1726.5 124.679 1710.28 117.163C1613.34 76.5998 1534.31 64.7631 1460.28 51.5951C1443.93 48.9599 1401.29 41.7378 1339.19 33.869C1320.92 31.5559 1300.67 29.1587 1279.55 26.9037C1237.69 22.8012 1190.96 17.0203 1136.76 17.1012H1137.65C1121.63 16.4906 1106.21 19.771 1090.88 24.4229C1076.12 29.1046 1063.24 34.8875 1052.02 43.0468C1040.58 51.1996 1028.34 65.8844 1032.21 83.2318C1036.21 99.6916 1047.98 109.789 1061.04 119.433C1086.66 137.348 1121.25 152.131 1170.91 168.234C1293.02 208.386 1505.36 243.405 1617.67 259.58C1675.88 268.064 1705.77 272.005 1729.23 275.177C1735.64 276.037 1741.34 276.796 1746.6 277.491C1760.8 279.364 1770.09 280.577 1783.51 282.271C1809.78 285.578 1834.72 288.588 1859.6 291.485C1894.48 295.459 1923.22 297.964 1956.18 298.294C1962.66 298.352 1974.14 298.189 1982.34 297.68C1991.14 297.132 1998.44 296.547 2009.17 294.758C2024.74 291.379 2053.34 287.491 2060.39 259.665C2062.1 250.238 2060.43 243.893 2060.78 242.962C2060.91 242.373 2063.21 248.065 2062.2 257.382C2057.31 287.393 2025.97 292.597 2011.17 295.847C2006.57 296.708 2000.51 297.526 1996.46 297.952C1992.43 298.388 1988.24 298.74 1983.89 299.011C1975.69 299.558 1964.17 299.767 1957.31 299.721C1924.25 299.468 1894.79 296.926 1859.44 292.894C1834.35 289.974 1809.19 286.937 1782.73 283.601C1768.8 281.844 1758.51 280.499 1744.16 278.602C1738.99 277.917 1733.5 277.184 1727.42 276.369C1704.42 273.253 1674.71 269.333 1616.88 260.899C1504.78 244.748 1292.67 209.729 1170.79 169.685C1121.53 153.732 1087.33 139.169 1061.53 121.515C1048.47 112.056 1036.84 102.586 1031.49 86.1947C1025.88 68.8605 1037.58 51.9452 1049.14 43.4528C1060.4 34.731 1073.38 28.701 1088.31 23.7503C1104.44 18.649 1120.66 15.0572 1137.74 15.6811H1136.67C1190.39 15.5701 1236.44 21.2632 1277.82 25.2877C1299.03 27.5402 1319.22 29.919 1337.37 32.2045C1400.86 40.2306 1440.81 47.0392 1454.89 49.2526C1531.67 62.7097 1613.98 74.9983 1712.13 116.448C1728.01 123.867 1744.67 132.39 1760.37 145.742C1775.55 157.654 1792.26 184.06 1780.66 208.693ZM2080.28 24.9521C2072.61 24.467 2066.42 23.8689 2065.93 23.4522C2065.45 23.0406 2070.81 22.9486 2078.41 23.4116C2112.98 25.5133 2144.79 29.2863 2162.28 31.4045C2199.16 35.9897 2221.31 39.3974 2246.61 43.4257C2264.04 46.2306 2282.21 49.301 2301.03 52.6187C2318.22 55.6505 2334 58.5301 2351.05 61.7242C2367.92 64.8875 2385.14 68.2018 2402.57 71.636C2418.41 74.7582 2433.09 77.7093 2448.41 80.8361C2555 102.679 2635.13 121.096 2679 131.166C2685.64 132.699 2690.96 134.26 2690.8 134.625C2690.64 134.99 2685.07 134.023 2678.44 132.492C2634.91 122.499 2555.28 104.198 2449.18 82.4398C2433.88 79.313 2418.95 76.3104 2403.36 73.2355C2385.86 69.7861 2368.58 66.4555 2351.63 63.2751C2334.53 60.0697 2318.53 57.1475 2301.46 54.1342C2282.53 50.7947 2264.24 47.7029 2246.7 44.8781C2222.02 40.948 2201.48 37.7684 2165.03 33.1765C2147.31 31.0039 2115.41 27.1651 2080.28 24.9521Z" fill="url(#paint0_linear_255_13)" fill-opacity="0.2"/>
</g>
<defs>
<filter id="filter0_f_255_13" x="0" y="0" width="2808.94" height="332.664" filterUnits="userSpaceOnUse" color-interpolation-filters="sRGB">
<feFlood flood-opacity="0" result="BackgroundImageFix"/>
<feBlend mode="normal" in="SourceGraphic" in2="BackgroundImageFix" result="shape"/>
<feGaussianBlur stdDeviation="2" result="effect1_foregroundBlur_255_13"/>
</filter>
<linearGradient id="paint0_linear_255_13" x1="4.5376" y1="126.929" x2="2791.2" y2="126.929" gradientUnits="userSpaceOnUse">
<stop stop-color="#FEFDFD"/>
<stop offset="0.25" stop-color="#A48317" stop-opacity="0.5"/>
<stop offset="0.5" stop-color="#FFFF21" stop-opacity="0.5"/>
<stop offset="0.75" stop-color="#A48317" stop-opacity="0.5"/>
<stop offset="1" stop-color="#FEFDFD"/>
</linearGradient>
</defs>
</svg>