<svg id="visual" viewBox="0 0 900 600" width="900" height="600" xmlns="http://www.w3.org/2000/svg" xmlns:xlink="http://www.w3.org/1999/xlink" version="1.1"><g fill="none" stroke="#FCAF3C" stroke-width="1"><path d="M0 -51.9L11.7 -16L49.4 -16L18.9 6.1L30.5 42L0 19.8L-30.5 42L-18.9 6.1L-49.4 -16L-11.7 -16Z" transform="translate(834 294)"></path><path d="M0 -48.1L10.8 -14.9L45.8 -14.9L17.5 5.7L28.3 38.9L0 18.4L-28.3 38.9L-17.5 5.7L-45.8 -14.9L-10.8 -14.9Z" transform="translate(538 94)"></path><path d="M0 -49.1L11 -15.2L46.7 -15.2L17.8 5.8L28.8 39.7L0 18.7L-28.8 39.7L-17.8 5.8L-46.7 -15.2L-11 -15.2Z" transform="translate(212 354)"></path><path d="M0 -47.2L10.6 -14.6L44.9 -14.6L17.1 5.6L27.7 38.2L0 18L-27.7 38.2L-17.1 5.6L-44.9 -14.6L-10.6 -14.6Z" transform="translate(344 123)"></path><path d="M0 -49.1L11 -15.2L46.7 -15.2L17.8 5.8L28.8 39.7L0 18.7L-28.8 39.7L-17.8 5.8L-46.7 -15.2L-11 -15.2Z" transform="translate(771 143)"></path><path d="M0 -50L11.2 -15.5L47.6 -15.5L18.2 5.9L29.4 40.5L0 19.1L-29.4 40.5L-18.2 5.9L-47.6 -15.5L-11.2 -15.5Z" transform="translate(10 361)"></path><path d="M0 -50L11.2 -15.5L47.6 -15.5L18.2 5.9L29.4 40.5L0 19.1L-29.4 40.5L-18.2 5.9L-47.6 -15.5L-11.2 -15.5Z" transform="translate(104 223)"></path><path d="M0 -50L11.2 -15.5L47.6 -15.5L18.2 5.9L29.4 40.5L0 19.1L-29.4 40.5L-18.2 5.9L-47.6 -15.5L-11.2 -15.5Z" transform="translate(856 434)"></path><path d="M0 -50L11.2 -15.5L47.6 -15.5L18.2 5.9L29.4 40.5L0 19.1L-29.4 40.5L-18.2 5.9L-47.6 -15.5L-11.2 -15.5Z" transform="translate(643 325)"></path><path d="M0 -50L11.2 -15.5L47.6 -15.5L18.2 5.9L29.4 40.5L0 19.1L-29.4 40.5L-18.2 5.9L-47.6 -15.5L-11.2 -15.5Z" transform="translate(403 2)"></path><path d="M0 -48.1L10.8 -14.9L45.8 -14.9L17.5 5.7L28.3 38.9L0 18.4L-28.3 38.9L-17.5 5.7L-45.8 -14.9L-10.8 -14.9Z" transform="translate(443 581)"></path><path d="M0 -47.2L10.6 -14.6L44.9 -14.6L17.1 5.6L27.7 38.2L0 18L-27.7 38.2L-17.1 5.6L-44.9 -14.6L-10.6 -14.6Z" transform="translate(194 75)"></path><path d="M0 -48.1L10.8 -14.9L45.8 -14.9L17.5 5.7L28.3 38.9L0 18.4L-28.3 38.9L-17.5 5.7L-45.8 -14.9L-10.8 -14.9Z" transform="translate(303 262)"></path><path d="M0 -49.1L11 -15.2L46.7 -15.2L17.8 5.8L28.8 39.7L0 18.7L-28.8 39.7L-17.8 5.8L-46.7 -15.2L-11 -15.2Z" transform="translate(344 373)"></path><path d="M0 -49.1L11 -15.2L46.7 -15.2L17.8 5.8L28.8 39.7L0 18.7L-28.8 39.7L-17.8 5.8L-46.7 -15.2L-11 -15.2Z" transform="translate(584 228)"></path><path d="M0 -49.1L11 -15.2L46.7 -15.2L17.8 5.8L28.8 39.7L0 18.7L-28.8 39.7L-17.8 5.8L-46.7 -15.2L-11 -15.2Z" transform="translate(48 501)"></path><path d="M0 -48.1L10.8 -14.9L45.8 -14.9L17.5 5.7L28.3 38.9L0 18.4L-28.3 38.9L-17.5 5.7L-45.8 -14.9L-10.8 -14.9Z" transform="translate(513 338)"></path><path d="M0 -48.1L10.8 -14.9L45.8 -14.9L17.5 5.7L28.3 38.9L0 18.4L-28.3 38.9L-17.5 5.7L-45.8 -14.9L-10.8 -14.9Z" transform="translate(700 230)"></path><path d="M0 -47.2L10.6 -14.6L44.9 -14.6L17.1 5.6L27.7 38.2L0 18L-27.7 38.2L-17.1 5.6L-44.9 -14.6L-10.6 -14.6Z" transform="translate(727 456)"></path><path d="M0 -48.1L10.8 -14.9L45.8 -14.9L17.5 5.7L28.3 38.9L0 18.4L-28.3 38.9L-17.5 5.7L-45.8 -14.9L-10.8 -14.9Z" transform="translate(654 8)"></path><path d="M0 -48.1L10.8 -14.9L45.8 -14.9L17.5 5.7L28.3 38.9L0 18.4L-28.3 38.9L-17.5 5.7L-45.8 -14.9L-10.8 -14.9Z" transform="translate(806 574)"></path><path d="M0 -49.1L11 -15.2L46.7 -15.2L17.8 5.8L28.8 39.7L0 18.7L-28.8 39.7L-17.8 5.8L-46.7 -15.2L-11 -15.2Z" transform="translate(462 475)"></path><path d="M0 -48.1L10.8 -14.9L45.8 -14.9L17.5 5.7L28.3 38.9L0 18.4L-28.3 38.9L-17.5 5.7L-45.8 -14.9L-10.8 -14.9Z" transform="translate(453 201)"></path><path d="M0 -50L11.2 -15.5L47.6 -15.5L18.2 5.9L29.4 40.5L0 19.1L-29.4 40.5L-18.2 5.9L-47.6 -15.5L-11.2 -15.5Z" transform="translate(298 565)"></path><path d="M0 -49.1L11 -15.2L46.7 -15.2L17.8 5.8L28.8 39.7L0 18.7L-28.8 39.7L-17.8 5.8L-46.7 -15.2L-11 -15.2Z" transform="translate(3 81)"></path><path d="M0 -48.1L10.8 -14.9L45.8 -14.9L17.5 5.7L28.3 38.9L0 18.4L-28.3 38.9L-17.5 5.7L-45.8 -14.9L-10.8 -14.9Z" transform="translate(159 508)"></path><path d="M0 -47.2L10.6 -14.6L44.9 -14.6L17.1 5.6L27.7 38.2L0 18L-27.7 38.2L-17.1 5.6L-44.9 -14.6L-10.6 -14.6Z" transform="translate(633 527)"></path><path d="M0 -47.2L10.6 -14.6L44.9 -14.6L17.1 5.6L27.7 38.2L0 18L-27.7 38.2L-17.1 5.6L-44.9 -14.6L-10.6 -14.6Z" transform="translate(855 32)"></path><path d="M0 -47.2L10.6 -14.6L44.9 -14.6L17.1 5.6L27.7 38.2L0 18L-27.7 38.2L-17.1 5.6L-44.9 -14.6L-10.6 -14.6Z" transform="translate(879 188)"></path><path d="M0 -47.2L10.6 -14.6L44.9 -14.6L17.1 5.6L27.7 38.2L0 18L-27.7 38.2L-17.1 5.6L-44.9 -14.6L-10.6 -14.6Z" transform="translate(642 136)"></path><path d="M0 -50L11.2 -15.5L47.6 -15.5L18.2 5.9L29.4 40.5L0 19.1L-29.4 40.5L-18.2 5.9L-47.6 -15.5L-11.2 -15.5Z" transform="translate(588 424)"></path><path d="M0 -49.1L11 -15.2L46.7 -15.2L17.8 5.8L28.8 39.7L0 18.7L-28.8 39.7L-17.8 5.8L-46.7 -15.2L-11 -15.2Z" transform="translate(291 17)"></path><path d="M0 -49.1L11 -15.2L46.7 -15.2L17.8 5.8L28.8 39.7L0 18.7L-28.8 39.7L-17.8 5.8L-46.7 -15.2L-11 -15.2Z" transform="translate(100 18)"></path><path d="M0 -47.2L10.6 -14.6L44.9 -14.6L17.1 5.6L27.7 38.2L0 18L-27.7 38.2L-17.1 5.6L-44.9 -14.6L-10.6 -14.6Z" transform="translate(115 407)"></path></g></svg>