<?xml version="1.0" encoding="utf-8"?>

<!DOCTYPE svg PUBLIC "-//W3C//DTD SVG 1.1//EN" "http://www.w3.org/Graphics/SVG/1.1/DTD/svg11.dtd">
<!-- Uploaded to: SVG Repo, www.svgrepo.com, Generator: SVG Repo Mixer Tools -->
<svg version="1.1" id="_x32_" xmlns="http://www.w3.org/2000/svg" xmlns:xlink="http://www.w3.org/1999/xlink" 
	 viewBox="0 0 512 512"  xml:space="preserve">
<style type="text/css">
	.st0{fill:#000000;}
</style>
<g>
	<rect x="224.409" y="350.774" class="st0" width="63.183" height="63.183"/>
	<rect x="224.409" y="98.042" class="st0" width="63.183" height="63.183"/>
	<rect x="161.225" y="287.592" class="st0" width="63.183" height="63.183"/>
	<rect x="287.591" y="287.592" class="st0" width="63.183" height="63.183"/>
	<rect x="161.225" y="161.226" class="st0" width="63.183" height="63.183"/>
	<rect x="224.409" y="224.408" class="st0" width="63.183" height="63.183"/>
	<rect x="287.591" y="161.226" class="st0" width="63.183" height="63.183"/>
	<path class="st0" d="M413.957,0H98.043c-19.251,0-34.86,15.608-34.86,34.86V477.14c0,19.251,15.608,34.86,34.86,34.86h315.915
		c19.251,0,34.86-15.608,34.86-34.86V34.86C448.817,15.608,433.209,0,413.957,0z M413.957,98.042h-63.183v63.183h63.183v63.183
		h-63.183v63.183h63.183v63.183h-63.183v63.183h63.183v63.183h-63.183v-63.183h-63.183v63.183h-63.183v-63.183h-63.183v63.183
		H98.043v-63.183h63.183v-63.183H98.043v-63.183h63.183v-63.183H98.043v-63.183h63.183V98.042H98.043V34.86h63.183v63.183h63.183
		V34.86h63.183v63.183h63.183V34.86h63.183V98.042z"/>
</g>
</svg>