<svg width="1050" height="264" viewBox="0 0 1050 264" fill="none" xmlns="http://www.w3.org/2000/svg">
<g filter="url(#filter0_d_198_15)">
<g filter="url(#filter1_d_198_15)">
<path d="M448.811 192.54L461.124 160.609H465.237L465.501 166.305L452.528 199H448.046L448.811 192.54ZM449.997 160.609L451.104 193.252L449.786 199H444.75L442.482 160.609H449.997ZM467.848 192.435L478.843 160.609H486.647L472.383 199H467.399L467.848 192.435ZM467.663 160.609L470.115 193.41L469.113 199H464.604L461.783 165.646L463.444 160.609H467.663ZM510.51 192.83L509.429 199H489.574L490.629 192.83H510.51ZM498.776 160.609L492.105 199H484.38L491.024 160.609H498.776ZM510.8 176.245L509.745 182.257H492.475L493.529 176.245H510.8ZM516.047 160.609L514.966 166.806H495.138L496.245 160.609H516.047ZM531.709 182.151H521.795L522.718 176.72L530.364 176.746C531.524 176.746 532.632 176.588 533.687 176.271C534.759 175.938 535.655 175.401 536.376 174.663C537.114 173.907 537.58 172.896 537.773 171.631C537.932 170.436 537.826 169.495 537.457 168.81C537.088 168.124 536.499 167.632 535.69 167.333C534.899 167.017 533.959 166.85 532.869 166.832L527.174 166.806L521.584 199H513.858L520.503 160.609L533.106 160.636C534.759 160.653 536.358 160.847 537.905 161.216C539.452 161.585 540.823 162.165 542.019 162.956C543.214 163.747 544.137 164.793 544.787 166.094C545.455 167.395 545.728 168.994 545.604 170.893C545.481 172.967 544.884 174.672 543.812 176.008C542.739 177.326 541.368 178.319 539.698 178.987C538.046 179.655 536.271 180.042 534.372 180.147L531.709 182.151ZM528.571 199H516.601L520.661 192.83L528.809 192.856C529.969 192.856 531.05 192.663 532.052 192.276C533.071 191.872 533.924 191.274 534.609 190.483C535.295 189.692 535.726 188.682 535.901 187.451C536.06 186.414 536.016 185.509 535.77 184.735C535.523 183.944 535.066 183.338 534.398 182.916C533.748 182.477 532.878 182.23 531.788 182.178L523.983 182.151L524.959 176.72L533.924 176.746L535.242 178.855C536.965 178.943 538.459 179.339 539.725 180.042C541.008 180.728 541.983 181.703 542.651 182.969C543.319 184.234 543.592 185.755 543.469 187.53C543.293 190.272 542.493 192.487 541.069 194.175C539.646 195.862 537.826 197.093 535.611 197.866C533.414 198.64 531.067 199.018 528.571 199ZM572.473 199H563.93L565.037 192.83L572.71 192.883C575.101 192.883 577.113 192.32 578.748 191.195C580.383 190.053 581.666 188.559 582.598 186.713C583.547 184.85 584.188 182.837 584.522 180.675L584.76 178.803C584.918 177.467 584.971 176.113 584.918 174.742C584.865 173.354 584.61 172.07 584.153 170.893C583.714 169.715 583.011 168.757 582.044 168.019C581.077 167.28 579.768 166.885 578.115 166.832L569.361 166.806L570.442 160.609L578.353 160.636C580.919 160.688 583.151 161.216 585.05 162.218C586.948 163.202 588.504 164.538 589.717 166.226C590.93 167.913 591.773 169.847 592.248 172.026C592.723 174.188 592.819 176.465 592.538 178.855L592.327 180.728C591.976 183.294 591.246 185.693 590.139 187.926C589.049 190.158 587.634 192.109 585.894 193.779C584.171 195.432 582.176 196.724 579.908 197.655C577.641 198.569 575.162 199.018 572.473 199ZM574.978 160.609L568.307 199H560.581L567.226 160.609H574.978ZM620.777 192.83L619.696 199H599.842L600.896 192.83H620.777ZM609.044 160.609L602.373 199H594.647L601.292 160.609H609.044ZM621.067 176.245L620.013 182.257H602.742L603.797 176.245H621.067ZM626.314 160.609L625.233 166.806H605.405L606.513 160.609H626.314ZM639.103 190.668L652.523 160.609H661.33L642.346 199H636.519L639.103 190.668ZM635.701 160.609L639.735 191.354L639.814 199H634.251L627.369 160.609H635.701ZM692.285 167.57L676.834 199H668.344L688.857 160.609H694.289L692.285 167.57ZM695.344 199L690.65 166.753L690.94 160.609H696.029L703.28 199H695.344ZM697.295 184.709L696.214 190.905H676.465L677.546 184.709H697.295ZM743.886 160.609L737.215 199H729.727L719.101 172.976L714.592 199H706.866L713.511 160.609H721.025L731.678 186.66L736.187 160.609H743.886ZM755.725 199H747.182L748.289 192.83L755.962 192.883C758.353 192.883 760.365 192.32 762 191.195C763.635 190.053 764.918 188.559 765.85 186.713C766.799 184.85 767.44 182.837 767.774 180.675L768.012 178.803C768.17 177.467 768.223 176.113 768.17 174.742C768.117 173.354 767.862 172.07 767.405 170.893C766.966 169.715 766.263 168.757 765.296 168.019C764.329 167.28 763.02 166.885 761.367 166.832L752.613 166.806L753.694 160.609L761.604 160.636C764.171 160.688 766.403 161.216 768.302 162.218C770.2 163.202 771.756 164.538 772.969 166.226C774.182 167.913 775.025 169.847 775.5 172.026C775.975 174.188 776.071 176.465 775.79 178.855L775.579 180.728C775.228 183.294 774.498 185.693 773.391 187.926C772.301 190.158 770.886 192.109 769.146 193.779C767.423 195.432 765.428 196.724 763.16 197.655C760.893 198.569 758.414 199.018 755.725 199ZM758.229 160.609L751.559 199H743.833L750.478 160.609H758.229ZM803.08 199H794.537L795.645 192.83L803.317 192.883C805.708 192.883 807.721 192.32 809.355 191.195C810.99 190.053 812.273 188.559 813.205 186.713C814.154 184.85 814.796 182.837 815.13 180.675L815.367 178.803C815.525 177.467 815.578 176.113 815.525 174.742C815.473 173.354 815.218 172.07 814.761 170.893C814.321 169.715 813.618 168.757 812.651 168.019C811.685 167.28 810.375 166.885 808.723 166.832L799.969 166.806L801.05 160.609L808.96 160.636C811.526 160.688 813.759 161.216 815.657 162.218C817.556 163.202 819.111 164.538 820.324 166.226C821.537 167.913 822.381 169.847 822.855 172.026C823.33 174.188 823.427 176.465 823.146 178.855L822.935 180.728C822.583 183.294 821.854 185.693 820.746 187.926C819.656 190.158 818.241 192.109 816.501 193.779C814.778 195.432 812.783 196.724 810.516 197.655C808.248 198.569 805.77 199.018 803.08 199ZM805.585 160.609L798.914 199H791.188L797.833 160.609H805.585ZM851.385 192.83L850.304 199H830.449L831.504 192.83H851.385ZM839.651 160.609L832.98 199H825.255L831.899 160.609H839.651ZM851.675 176.245L850.62 182.257H833.35L834.404 176.245H851.675ZM856.922 160.609L855.841 166.806H836.013L837.12 160.609H856.922ZM875.906 188.77C876.064 187.838 875.985 187.056 875.669 186.423C875.37 185.772 874.913 185.228 874.298 184.788C873.7 184.331 873.023 183.944 872.268 183.628C871.529 183.312 870.791 183.021 870.053 182.758C868.699 182.23 867.363 181.633 866.045 180.965C864.744 180.297 863.558 179.506 862.485 178.592C861.413 177.66 860.578 176.579 859.98 175.349C859.383 174.101 859.137 172.642 859.242 170.972C859.365 169.073 859.901 167.43 860.851 166.041C861.8 164.652 863.004 163.519 864.463 162.64C865.939 161.743 867.539 161.084 869.262 160.662C871.002 160.24 872.707 160.047 874.377 160.082C876.768 160.117 878.895 160.618 880.758 161.585C882.621 162.534 884.08 163.888 885.135 165.646C886.207 167.386 886.708 169.478 886.638 171.921H878.991C879.062 170.761 878.912 169.759 878.543 168.915C878.191 168.054 877.62 167.395 876.829 166.938C876.056 166.463 875.062 166.208 873.85 166.173C872.812 166.155 871.793 166.322 870.791 166.674C869.807 167.008 868.954 167.535 868.233 168.256C867.53 168.959 867.091 169.873 866.915 170.998C866.774 171.824 866.889 172.536 867.258 173.134C867.645 173.731 868.163 174.241 868.813 174.663C869.481 175.085 870.185 175.445 870.923 175.744C871.679 176.025 872.355 176.28 872.953 176.509C874.377 177.019 875.748 177.625 877.066 178.328C878.402 179.031 879.58 179.866 880.6 180.833C881.619 181.782 882.401 182.907 882.946 184.208C883.491 185.491 883.711 186.985 883.605 188.69C883.447 190.642 882.92 192.312 882.023 193.7C881.127 195.071 879.967 196.196 878.543 197.075C877.119 197.937 875.563 198.569 873.876 198.974C872.188 199.378 870.475 199.571 868.734 199.554C866.836 199.519 865.052 199.22 863.382 198.657C861.712 198.095 860.253 197.286 859.005 196.231C857.757 195.159 856.79 193.85 856.104 192.303C855.437 190.738 855.129 188.954 855.182 186.95L862.907 186.977C862.837 188.049 862.916 188.989 863.145 189.798C863.391 190.589 863.777 191.257 864.305 191.802C864.85 192.347 865.518 192.76 866.309 193.041C867.117 193.305 868.058 193.445 869.13 193.463C870.167 193.463 871.169 193.305 872.136 192.988C873.103 192.672 873.929 192.171 874.614 191.485C875.3 190.782 875.73 189.877 875.906 188.77ZM901.878 160.609L895.233 199H887.508L894.179 160.609H901.878ZM935.391 178.935L932.991 194.175C931.849 195.563 930.425 196.653 928.72 197.444C927.032 198.218 925.248 198.763 923.367 199.079C921.486 199.396 919.693 199.536 917.988 199.501C915.369 199.466 913.137 198.938 911.291 197.919C909.463 196.882 908.004 195.493 906.914 193.753C905.842 192.013 905.121 190.053 904.752 187.873C904.383 185.676 904.348 183.391 904.646 181.018L904.989 178.618C905.323 176.157 905.965 173.811 906.914 171.578C907.863 169.328 909.103 167.333 910.632 165.593C912.161 163.835 913.989 162.464 916.116 161.479C918.243 160.478 920.66 160.003 923.367 160.056C926.074 160.108 928.377 160.636 930.275 161.638C932.174 162.64 933.65 164.081 934.705 165.962C935.777 167.825 936.401 170.093 936.577 172.765L929.142 172.738C929.054 171.473 928.799 170.356 928.377 169.39C927.955 168.423 927.322 167.667 926.479 167.122C925.635 166.577 924.527 166.278 923.156 166.226C921.469 166.155 920.019 166.489 918.806 167.228C917.593 167.966 916.573 168.959 915.747 170.207C914.938 171.438 914.297 172.791 913.822 174.268C913.348 175.727 913.014 177.159 912.82 178.565L912.478 181.044C912.319 182.327 912.24 183.681 912.24 185.104C912.258 186.511 912.46 187.838 912.847 189.086C913.251 190.316 913.919 191.327 914.851 192.118C915.782 192.892 917.083 193.296 918.753 193.331C919.562 193.349 920.353 193.296 921.126 193.173C921.899 193.05 922.646 192.848 923.367 192.566C924.088 192.268 924.765 191.881 925.397 191.406L926.716 184.577H919.702L920.678 178.935H935.391ZM975.073 160.609L968.402 199H960.914L950.288 172.976L945.779 199H938.054L944.698 160.609H952.213L962.865 186.66L967.374 160.609H975.073ZM1001.15 192.83L1000.07 199H980.215L981.27 192.83H1001.15ZM989.417 160.609L982.746 199H975.021L981.665 160.609H989.417ZM1001.44 176.245L1000.39 182.257H983.115L984.17 176.245H1001.44ZM1006.69 160.609L1005.61 166.806H985.778L986.886 160.609H1006.69ZM1011.14 160.609L1024.67 160.636C1027.01 160.671 1029.13 161.102 1031.02 161.928C1032.94 162.754 1034.43 163.993 1035.48 165.646C1036.55 167.298 1037 169.398 1036.83 171.947C1036.65 174.039 1036.14 175.806 1035.3 177.247C1034.47 178.688 1033.35 179.91 1031.95 180.912C1030.56 181.914 1028.96 182.775 1027.15 183.496L1024.46 184.788H1011.96L1013.02 178.618L1021.61 178.671C1022.89 178.653 1024.06 178.407 1025.12 177.933C1026.17 177.458 1027.04 176.772 1027.73 175.876C1028.43 174.962 1028.87 173.854 1029.05 172.554C1029.21 171.411 1029.13 170.418 1028.81 169.574C1028.51 168.73 1027.99 168.071 1027.25 167.597C1026.52 167.122 1025.58 166.867 1024.43 166.832L1017.81 166.806L1012.22 199H1004.5L1011.14 160.609ZM1025.51 199L1019.98 181.888L1027.75 181.835L1033.74 198.578V199H1025.51Z" fill="white"/>
</g>
<g filter="url(#filter2_d_198_15)">
<path d="M44.8125 143H21.5508V58.625H63.0352C66.9414 58.625 70.7109 59.0938 74.3438 60.0312C77.9766 60.9297 81.1797 62.375 83.9531 64.3672C86.7656 66.3203 88.9922 68.8594 90.6328 71.9844C92.3125 75.1094 93.1523 78.8984 93.1523 83.3516C93.1523 86.8281 92.4102 90.1094 90.9258 93.1953C89.4805 96.2422 87.5273 98.9766 85.0664 101.398C82.6445 103.781 79.8516 105.773 76.6875 107.375C73.5234 108.938 70.2422 109.973 66.8438 110.48C68.3672 113.059 69.9492 115.5 71.5898 117.805C73.2695 120.109 74.9492 122.277 76.6289 124.309C78.3477 126.301 80.0469 128.156 81.7266 129.875C83.4062 131.555 85.0078 133.098 86.5312 134.504C90.125 137.785 93.6797 140.617 97.1953 143H68.1914C65.8477 140.773 63.6211 138.098 61.5117 134.973C59.7148 132.316 57.8984 129.035 56.0625 125.129C54.2656 121.184 52.8789 116.633 51.9023 111.477H44.8125V143ZM69.5391 83.3516C69.5391 77.6875 68.1523 73.5273 65.3789 70.8711C62.6445 68.2148 58.5234 66.8867 53.0156 66.8867H44.8125V103.508H53.0156C55.9453 103.508 58.4453 102.961 60.5156 101.867C62.625 100.734 64.3438 99.25 65.6719 97.4141C67 95.5391 67.9766 93.3906 68.6016 90.9688C69.2266 88.5469 69.5391 86.0078 69.5391 83.3516ZM175.887 109.016C175.887 112.531 175.418 115.832 174.48 118.918C173.543 122.004 172.234 124.855 170.555 127.473C168.914 130.09 166.922 132.453 164.578 134.562C162.234 136.633 159.656 138.391 156.844 139.836C154.07 141.281 151.082 142.395 147.879 143.176C144.715 143.957 141.453 144.348 138.094 144.348C134.734 144.348 131.473 143.957 128.309 143.176C125.145 142.395 122.156 141.281 119.344 139.836C116.57 138.391 114.012 136.633 111.668 134.562C109.324 132.453 107.312 130.09 105.633 127.473C103.992 124.855 102.703 122.004 101.766 118.918C100.828 115.793 100.359 112.492 100.359 109.016C100.359 105.539 100.828 102.258 101.766 99.1719C102.703 96.0469 103.992 93.1758 105.633 90.5586C107.312 87.9414 109.324 85.5977 111.668 83.5273C114.012 81.418 116.57 79.6406 119.344 78.1953C122.156 76.75 125.145 75.6367 128.309 74.8555C131.473 74.0742 134.734 73.6836 138.094 73.6836C141.453 73.6836 144.715 74.0742 147.879 74.8555C151.082 75.6367 154.07 76.75 156.844 78.1953C159.656 79.6406 162.234 81.418 164.578 83.5273C166.922 85.5977 168.914 87.9414 170.555 90.5586C172.234 93.1758 173.543 96.0469 174.48 99.1719C175.418 102.258 175.887 105.539 175.887 109.016ZM155.73 109.016C155.73 107.141 155.613 105.168 155.379 103.098C155.184 100.988 154.832 98.9375 154.324 96.9453C153.816 94.9141 153.113 92.9805 152.215 91.1445C151.355 89.2695 150.281 87.6484 148.992 86.2812C147.703 84.875 146.16 83.7617 144.363 82.9414C142.566 82.082 140.477 81.6523 138.094 81.6523C135.828 81.6523 133.816 82.082 132.059 82.9414C130.301 83.8008 128.758 84.9531 127.43 86.3984C126.141 87.8047 125.047 89.4453 124.148 91.3203C123.289 93.1953 122.586 95.1484 122.039 97.1797C121.492 99.1719 121.102 101.203 120.867 103.273C120.633 105.305 120.516 107.219 120.516 109.016C120.516 110.812 120.633 112.746 120.867 114.816C121.102 116.848 121.492 118.879 122.039 120.91C122.586 122.941 123.289 124.895 124.148 126.77C125.047 128.605 126.141 130.246 127.43 131.691C128.758 133.098 130.301 134.23 132.059 135.09C133.816 135.949 135.828 136.379 138.094 136.379C140.438 136.379 142.508 135.969 144.305 135.148C146.102 134.289 147.645 133.156 148.934 131.75C150.262 130.344 151.355 128.723 152.215 126.887C153.074 125.051 153.758 123.117 154.266 121.086C154.812 119.055 155.184 117.004 155.379 114.934C155.613 112.863 155.73 110.891 155.73 109.016ZM256.629 143H249.012L240.223 128.293C239.363 130.754 238.172 132.98 236.648 134.973C235.164 136.965 233.426 138.684 231.434 140.129C229.48 141.535 227.312 142.629 224.93 143.41C222.586 144.191 220.105 144.582 217.488 144.582C212.332 144.582 207.723 143.664 203.66 141.828C199.598 139.992 196.16 137.492 193.348 134.328C190.535 131.125 188.387 127.375 186.902 123.078C185.418 118.781 184.676 114.172 184.676 109.25C184.676 104.328 185.418 99.7188 186.902 95.4219C188.387 91.125 190.535 87.3945 193.348 84.2305C196.16 81.0664 199.598 78.5664 203.66 76.7305C207.723 74.8945 212.332 73.9766 217.488 73.9766C221.434 73.9766 225.047 74.7383 228.328 76.2617C231.648 77.7852 234.48 80.168 236.824 83.4102V50.4219H256.629V143ZM236.707 109.25C236.707 107.688 236.59 105.969 236.355 104.094C236.121 102.219 235.75 100.324 235.242 98.4102C234.734 96.4961 234.07 94.6406 233.25 92.8438C232.43 91.0469 231.414 89.4453 230.203 88.0391C229.031 86.6328 227.645 85.5195 226.043 84.6992C224.48 83.8398 222.684 83.4102 220.652 83.4102C218.426 83.4102 216.492 83.8203 214.852 84.6406C213.211 85.4219 211.805 86.4961 210.633 87.8633C209.461 89.1914 208.484 90.7344 207.703 92.4922C206.961 94.25 206.375 96.0859 205.945 98C205.516 99.9141 205.203 101.848 205.008 103.801C204.852 105.715 204.773 107.531 204.773 109.25C204.773 110.969 204.852 112.805 205.008 114.758C205.203 116.672 205.516 118.586 205.945 120.5C206.375 122.414 206.961 124.27 207.703 126.066C208.484 127.824 209.461 129.387 210.633 130.754C211.805 132.082 213.211 133.156 214.852 133.977C216.492 134.758 218.426 135.148 220.652 135.148C222.879 135.148 224.832 134.758 226.512 133.977C228.191 133.195 229.617 132.141 230.789 130.812C232 129.445 232.977 127.902 233.719 126.184C234.5 124.426 235.105 122.59 235.535 120.676C235.965 118.723 236.258 116.77 236.414 114.816C236.609 112.863 236.707 111.008 236.707 109.25ZM330.691 81.3008L319.559 99.7578C319.09 98.1953 318.484 96.4375 317.742 94.4844C317 92.5312 316.082 90.7148 314.988 89.0352C313.895 87.3164 312.586 85.8906 311.062 84.7578C309.539 83.5859 307.781 83 305.789 83C303.953 83 302.352 83.4688 300.984 84.4062C299.656 85.3438 298.523 86.5742 297.586 88.0977C296.648 89.582 295.867 91.2812 295.242 93.1953C294.656 95.0703 294.188 96.9844 293.836 98.9375C293.523 100.852 293.309 102.707 293.191 104.504C293.074 106.262 293.016 107.785 293.016 109.074V143H273.152V75.3242H280.77L288.797 91.0859C289.891 88.5469 291.141 86.2227 292.547 84.1133C293.953 81.9648 295.574 80.1289 297.41 78.6055C299.246 77.043 301.316 75.832 303.621 74.9727C305.965 74.1133 308.602 73.6836 311.531 73.6836C313.055 73.6836 314.754 73.8203 316.629 74.0938C318.504 74.3281 320.34 74.7578 322.137 75.3828C323.934 75.9688 325.594 76.75 327.117 77.7266C328.641 78.7031 329.832 79.8945 330.691 81.3008ZM359.812 58.9766C359.812 60.4609 359.52 61.8672 358.934 63.1953C358.387 64.5234 357.625 65.6758 356.648 66.6523C355.672 67.6289 354.52 68.4102 353.191 68.9961C351.863 69.543 350.457 69.8164 348.973 69.8164C347.488 69.8164 346.082 69.543 344.754 68.9961C343.465 68.4102 342.332 67.6289 341.355 66.6523C340.379 65.6758 339.598 64.5234 339.012 63.1953C338.465 61.8672 338.191 60.4609 338.191 58.9766C338.191 57.4922 338.465 56.1055 339.012 54.8164C339.598 53.4883 340.379 52.3359 341.355 51.3594C342.332 50.3828 343.465 49.6211 344.754 49.0742C346.082 48.4883 347.488 48.1953 348.973 48.1953C350.457 48.1953 351.863 48.4883 353.191 49.0742C354.52 49.6211 355.672 50.3828 356.648 51.3594C357.625 52.3359 358.387 53.4883 358.934 54.8164C359.52 56.1055 359.812 57.4922 359.812 58.9766ZM358.934 143H339.07V75.3828H358.934V143ZM443.719 134.855C443.719 140.246 442.918 145.324 441.316 150.09C439.715 154.855 437.391 159.016 434.344 162.57C431.297 166.164 427.547 168.996 423.094 171.066C418.68 173.176 413.641 174.23 407.977 174.23C404.852 174.23 401.688 173.879 398.484 173.176C395.32 172.473 392.312 171.379 389.461 169.895C386.648 168.449 384.109 166.594 381.844 164.328C379.617 162.102 377.859 159.465 376.57 156.418L385.125 153.195C385.867 155.109 386.824 156.867 387.996 158.469C389.207 160.07 390.594 161.438 392.156 162.57C393.719 163.742 395.438 164.641 397.312 165.266C399.188 165.93 401.16 166.262 403.23 166.262C407.137 166.262 410.398 165.461 413.016 163.859C415.672 162.258 417.801 160.168 419.402 157.59C421.004 155.012 422.156 152.082 422.859 148.801C423.562 145.559 423.914 142.258 423.914 138.898V134.914C421.57 138.117 418.738 140.5 415.418 142.062C412.137 143.586 408.523 144.348 404.578 144.348C399.422 144.348 394.812 143.43 390.75 141.594C386.688 139.758 383.25 137.258 380.438 134.094C377.625 130.891 375.477 127.141 373.992 122.844C372.508 118.547 371.766 113.938 371.766 109.016C371.766 104.094 372.508 99.4844 373.992 95.1875C375.477 90.8906 377.625 87.1602 380.438 83.9961C383.25 80.793 386.688 78.2734 390.75 76.4375C394.812 74.6016 399.422 73.6836 404.578 73.6836C407.195 73.6836 409.676 74.0742 412.02 74.8555C414.402 75.6367 416.57 76.75 418.523 78.1953C420.516 79.6016 422.254 81.3203 423.738 83.3516C425.262 85.3438 426.453 87.5703 427.312 90.0312L436.102 75.3242H443.719V134.855ZM423.797 109.016C423.797 107.258 423.699 105.402 423.504 103.449C423.348 101.496 423.055 99.5625 422.625 97.6484C422.195 95.7344 421.59 93.918 420.809 92.1992C420.066 90.4414 419.09 88.8984 417.879 87.5703C416.707 86.2031 415.281 85.1289 413.602 84.3477C411.922 83.5664 409.969 83.1758 407.742 83.1758C405.516 83.1758 403.582 83.5859 401.941 84.4062C400.301 85.1875 398.895 86.2617 397.723 87.6289C396.551 88.957 395.574 90.5 394.793 92.2578C394.051 94.0156 393.465 95.8516 393.035 97.7656C392.605 99.6797 392.293 101.613 392.098 103.566C391.941 105.48 391.863 107.297 391.863 109.016C391.863 110.734 391.941 112.57 392.098 114.523C392.293 116.477 392.605 118.41 393.035 120.324C393.465 122.238 394.051 124.074 394.793 125.832C395.574 127.59 396.551 129.152 397.723 130.52C398.895 131.848 400.301 132.922 401.941 133.742C403.582 134.523 405.516 134.914 407.742 134.914C409.773 134.914 411.57 134.504 413.133 133.684C414.734 132.824 416.121 131.691 417.293 130.285C418.504 128.879 419.52 127.277 420.34 125.48C421.16 123.684 421.824 121.828 422.332 119.914C422.84 118 423.211 116.105 423.445 114.23C423.68 112.316 423.797 110.578 423.797 109.016ZM531.785 109.016C531.785 112.531 531.316 115.832 530.379 118.918C529.441 122.004 528.133 124.855 526.453 127.473C524.812 130.09 522.82 132.453 520.477 134.562C518.133 136.633 515.555 138.391 512.742 139.836C509.969 141.281 506.98 142.395 503.777 143.176C500.613 143.957 497.352 144.348 493.992 144.348C490.633 144.348 487.371 143.957 484.207 143.176C481.043 142.395 478.055 141.281 475.242 139.836C472.469 138.391 469.91 136.633 467.566 134.562C465.223 132.453 463.211 130.09 461.531 127.473C459.891 124.855 458.602 122.004 457.664 118.918C456.727 115.793 456.258 112.492 456.258 109.016C456.258 105.539 456.727 102.258 457.664 99.1719C458.602 96.0469 459.891 93.1758 461.531 90.5586C463.211 87.9414 465.223 85.5977 467.566 83.5273C469.91 81.418 472.469 79.6406 475.242 78.1953C478.055 76.75 481.043 75.6367 484.207 74.8555C487.371 74.0742 490.633 73.6836 493.992 73.6836C497.352 73.6836 500.613 74.0742 503.777 74.8555C506.98 75.6367 509.969 76.75 512.742 78.1953C515.555 79.6406 518.133 81.418 520.477 83.5273C522.82 85.5977 524.812 87.9414 526.453 90.5586C528.133 93.1758 529.441 96.0469 530.379 99.1719C531.316 102.258 531.785 105.539 531.785 109.016ZM511.629 109.016C511.629 107.141 511.512 105.168 511.277 103.098C511.082 100.988 510.73 98.9375 510.223 96.9453C509.715 94.9141 509.012 92.9805 508.113 91.1445C507.254 89.2695 506.18 87.6484 504.891 86.2812C503.602 84.875 502.059 83.7617 500.262 82.9414C498.465 82.082 496.375 81.6523 493.992 81.6523C491.727 81.6523 489.715 82.082 487.957 82.9414C486.199 83.8008 484.656 84.9531 483.328 86.3984C482.039 87.8047 480.945 89.4453 480.047 91.3203C479.188 93.1953 478.484 95.1484 477.938 97.1797C477.391 99.1719 477 101.203 476.766 103.273C476.531 105.305 476.414 107.219 476.414 109.016C476.414 110.812 476.531 112.746 476.766 114.816C477 116.848 477.391 118.879 477.938 120.91C478.484 122.941 479.188 124.895 480.047 126.77C480.945 128.605 482.039 130.246 483.328 131.691C484.656 133.098 486.199 134.23 487.957 135.09C489.715 135.949 491.727 136.379 493.992 136.379C496.336 136.379 498.406 135.969 500.203 135.148C502 134.289 503.543 133.156 504.832 131.75C506.16 130.344 507.254 128.723 508.113 126.887C508.973 125.051 509.656 123.117 510.164 121.086C510.711 119.055 511.082 117.004 511.277 114.934C511.512 112.863 511.629 110.891 511.629 109.016ZM602.859 143H579.598V58.625H625.184C629.129 58.625 632.898 59.1523 636.492 60.207C640.125 61.2617 643.328 62.8633 646.102 65.0117C648.875 67.1211 651.082 69.7969 652.723 73.0391C654.402 76.2422 655.242 80.0117 655.242 84.3477C655.242 87.082 654.852 89.6602 654.07 92.082C653.289 94.4648 652.195 96.6523 650.789 98.6445C649.422 100.637 647.801 102.434 645.926 104.035C644.051 105.637 642 106.984 639.773 108.078C637.547 109.172 635.184 110.012 632.684 110.598C630.223 111.184 627.723 111.477 625.184 111.477H602.859V143ZM631.688 84.3477C631.688 78.918 630.301 74.6602 627.527 71.5742C624.793 68.4492 620.652 66.8867 615.105 66.8867H602.859V103.508H615.105C618.074 103.508 620.594 103.039 622.664 102.102C624.773 101.125 626.492 99.7773 627.82 98.0586C629.148 96.3398 630.125 94.3281 630.75 92.0234C631.375 89.6797 631.688 87.1211 631.688 84.3477ZM732.938 143H713.133V134.914C710.789 138.117 707.957 140.5 704.637 142.062C701.355 143.586 697.742 144.348 693.797 144.348C688.641 144.348 684.031 143.43 679.969 141.594C675.906 139.758 672.469 137.258 669.656 134.094C666.844 130.891 664.695 127.141 663.211 122.844C661.727 118.547 660.984 113.938 660.984 109.016C660.984 104.094 661.727 99.4844 663.211 95.1875C664.695 90.8906 666.844 87.1602 669.656 83.9961C672.469 80.793 675.906 78.2734 679.969 76.4375C684.031 74.6016 688.641 73.6836 693.797 73.6836C696.414 73.6836 698.895 74.0742 701.238 74.8555C703.621 75.6367 705.789 76.75 707.742 78.1953C709.734 79.6016 711.473 81.3203 712.957 83.3516C714.48 85.3438 715.672 87.5703 716.531 90.0312L725.32 75.3242H732.938V143ZM713.016 109.016C713.016 107.258 712.918 105.402 712.723 103.449C712.566 101.496 712.273 99.5625 711.844 97.6484C711.414 95.7344 710.809 93.918 710.027 92.1992C709.285 90.4414 708.309 88.8984 707.098 87.5703C705.926 86.2031 704.5 85.1289 702.82 84.3477C701.141 83.5664 699.188 83.1758 696.961 83.1758C694.734 83.1758 692.801 83.5859 691.16 84.4062C689.52 85.1875 688.113 86.2617 686.941 87.6289C685.77 88.957 684.793 90.5 684.012 92.2578C683.27 94.0156 682.684 95.8516 682.254 97.7656C681.824 99.6797 681.512 101.613 681.316 103.566C681.16 105.48 681.082 107.297 681.082 109.016C681.082 110.734 681.16 112.57 681.316 114.523C681.512 116.477 681.824 118.41 682.254 120.324C682.684 122.238 683.27 124.074 684.012 125.832C684.793 127.59 685.77 129.152 686.941 130.52C688.113 131.848 689.52 132.922 691.16 133.742C692.801 134.523 694.734 134.914 696.961 134.914C698.992 134.914 700.789 134.504 702.352 133.684C703.953 132.824 705.34 131.691 706.512 130.285C707.723 128.879 708.738 127.277 709.559 125.48C710.379 123.684 711.043 121.828 711.551 119.914C712.059 118 712.43 116.105 712.664 114.23C712.898 112.316 713.016 110.578 713.016 109.016ZM807.762 121.379C807.762 124.348 807.332 126.984 806.473 129.289C805.613 131.594 804.441 133.605 802.957 135.324C801.473 137.004 799.715 138.43 797.684 139.602C795.652 140.734 793.465 141.652 791.121 142.355C788.816 143.059 786.395 143.566 783.855 143.879C781.316 144.191 778.797 144.348 776.297 144.348C772.938 144.348 769.969 144.133 767.391 143.703C764.812 143.273 762.352 142.59 760.008 141.652C757.664 140.676 755.32 139.426 752.977 137.902C750.672 136.379 748.094 134.523 745.242 132.336L756.785 122.902C757.84 124.895 759.227 126.711 760.945 128.352C762.703 129.953 764.52 131.34 766.395 132.512C768.27 133.684 770.086 134.582 771.844 135.207C773.602 135.832 775.027 136.145 776.121 136.145C777.02 136.145 778.035 136.125 779.168 136.086C780.301 136.008 781.453 135.891 782.625 135.734C783.797 135.539 784.949 135.266 786.082 134.914C787.215 134.562 788.211 134.094 789.07 133.508C789.969 132.883 790.672 132.121 791.18 131.223C791.727 130.285 792 129.172 792 127.883C792 126.555 791.648 125.402 790.945 124.426C790.281 123.41 789.402 122.531 788.309 121.789C787.215 121.047 785.965 120.422 784.559 119.914C783.152 119.406 781.727 118.957 780.281 118.566C778.875 118.176 777.508 117.844 776.18 117.57C774.852 117.258 773.699 116.965 772.723 116.691C770.926 116.184 769.031 115.676 767.039 115.168C765.047 114.621 763.074 114.016 761.121 113.352C759.168 112.648 757.293 111.828 755.496 110.891C753.738 109.953 752.176 108.84 750.809 107.551C749.48 106.223 748.406 104.68 747.586 102.922C746.805 101.125 746.414 99.0352 746.414 96.6523C746.414 92.2773 747.273 88.625 748.992 85.6953C750.75 82.7266 753.055 80.3633 755.906 78.6055C758.758 76.8086 762 75.5391 765.633 74.7969C769.266 74.0547 772.957 73.6836 776.707 73.6836C779.285 73.6836 782 73.957 784.852 74.5039C787.703 75.0117 790.477 75.793 793.172 76.8477C795.867 77.8633 798.387 79.1133 800.73 80.5977C803.074 82.082 805.027 83.7812 806.59 85.6953L795.047 95.1875C794.188 92.8438 793.055 90.832 791.648 89.1523C790.281 87.4727 788.777 86.1055 787.137 85.0508C785.535 83.957 783.875 83.1562 782.156 82.6484C780.477 82.1406 778.914 81.8867 777.469 81.8867C776.062 81.8867 774.48 81.9453 772.723 82.0625C770.965 82.1797 769.305 82.5117 767.742 83.0586C766.219 83.6055 764.91 84.4453 763.816 85.5781C762.762 86.6719 762.234 88.1953 762.234 90.1484C762.234 91.5547 762.547 92.7656 763.172 93.7812C763.836 94.7578 764.695 95.6172 765.75 96.3594C766.805 97.0625 767.996 97.668 769.324 98.1758C770.691 98.6445 772.078 99.0742 773.484 99.4648C774.891 99.8164 776.258 100.129 777.586 100.402C778.914 100.676 780.105 100.969 781.16 101.281C782.957 101.789 784.852 102.316 786.844 102.863C788.875 103.371 790.867 103.977 792.82 104.68C794.773 105.344 796.648 106.145 798.445 107.082C800.281 107.98 801.883 109.094 803.25 110.422C804.617 111.75 805.711 113.312 806.531 115.109C807.352 116.867 807.762 118.957 807.762 121.379ZM878.543 121.379C878.543 124.348 878.113 126.984 877.254 129.289C876.395 131.594 875.223 133.605 873.738 135.324C872.254 137.004 870.496 138.43 868.465 139.602C866.434 140.734 864.246 141.652 861.902 142.355C859.598 143.059 857.176 143.566 854.637 143.879C852.098 144.191 849.578 144.348 847.078 144.348C843.719 144.348 840.75 144.133 838.172 143.703C835.594 143.273 833.133 142.59 830.789 141.652C828.445 140.676 826.102 139.426 823.758 137.902C821.453 136.379 818.875 134.523 816.023 132.336L827.566 122.902C828.621 124.895 830.008 126.711 831.727 128.352C833.484 129.953 835.301 131.34 837.176 132.512C839.051 133.684 840.867 134.582 842.625 135.207C844.383 135.832 845.809 136.145 846.902 136.145C847.801 136.145 848.816 136.125 849.949 136.086C851.082 136.008 852.234 135.891 853.406 135.734C854.578 135.539 855.73 135.266 856.863 134.914C857.996 134.562 858.992 134.094 859.852 133.508C860.75 132.883 861.453 132.121 861.961 131.223C862.508 130.285 862.781 129.172 862.781 127.883C862.781 126.555 862.43 125.402 861.727 124.426C861.062 123.41 860.184 122.531 859.09 121.789C857.996 121.047 856.746 120.422 855.34 119.914C853.934 119.406 852.508 118.957 851.062 118.566C849.656 118.176 848.289 117.844 846.961 117.57C845.633 117.258 844.48 116.965 843.504 116.691C841.707 116.184 839.812 115.676 837.82 115.168C835.828 114.621 833.855 114.016 831.902 113.352C829.949 112.648 828.074 111.828 826.277 110.891C824.52 109.953 822.957 108.84 821.59 107.551C820.262 106.223 819.188 104.68 818.367 102.922C817.586 101.125 817.195 99.0352 817.195 96.6523C817.195 92.2773 818.055 88.625 819.773 85.6953C821.531 82.7266 823.836 80.3633 826.688 78.6055C829.539 76.8086 832.781 75.5391 836.414 74.7969C840.047 74.0547 843.738 73.6836 847.488 73.6836C850.066 73.6836 852.781 73.957 855.633 74.5039C858.484 75.0117 861.258 75.793 863.953 76.8477C866.648 77.8633 869.168 79.1133 871.512 80.5977C873.855 82.082 875.809 83.7812 877.371 85.6953L865.828 95.1875C864.969 92.8438 863.836 90.832 862.43 89.1523C861.062 87.4727 859.559 86.1055 857.918 85.0508C856.316 83.957 854.656 83.1562 852.938 82.6484C851.258 82.1406 849.695 81.8867 848.25 81.8867C846.844 81.8867 845.262 81.9453 843.504 82.0625C841.746 82.1797 840.086 82.5117 838.523 83.0586C837 83.6055 835.691 84.4453 834.598 85.5781C833.543 86.6719 833.016 88.1953 833.016 90.1484C833.016 91.5547 833.328 92.7656 833.953 93.7812C834.617 94.7578 835.477 95.6172 836.531 96.3594C837.586 97.0625 838.777 97.668 840.105 98.1758C841.473 98.6445 842.859 99.0742 844.266 99.4648C845.672 99.8164 847.039 100.129 848.367 100.402C849.695 100.676 850.887 100.969 851.941 101.281C853.738 101.789 855.633 102.316 857.625 102.863C859.656 103.371 861.648 103.977 863.602 104.68C865.555 105.344 867.43 106.145 869.227 107.082C871.062 107.98 872.664 109.094 874.031 110.422C875.398 111.75 876.492 113.312 877.312 115.109C878.133 116.867 878.543 118.957 878.543 121.379ZM962.566 109.016C962.566 112.531 962.098 115.832 961.16 118.918C960.223 122.004 958.914 124.855 957.234 127.473C955.594 130.09 953.602 132.453 951.258 134.562C948.914 136.633 946.336 138.391 943.523 139.836C940.75 141.281 937.762 142.395 934.559 143.176C931.395 143.957 928.133 144.348 924.773 144.348C921.414 144.348 918.152 143.957 914.988 143.176C911.824 142.395 908.836 141.281 906.023 139.836C903.25 138.391 900.691 136.633 898.348 134.562C896.004 132.453 893.992 130.09 892.312 127.473C890.672 124.855 889.383 122.004 888.445 118.918C887.508 115.793 887.039 112.492 887.039 109.016C887.039 105.539 887.508 102.258 888.445 99.1719C889.383 96.0469 890.672 93.1758 892.312 90.5586C893.992 87.9414 896.004 85.5977 898.348 83.5273C900.691 81.418 903.25 79.6406 906.023 78.1953C908.836 76.75 911.824 75.6367 914.988 74.8555C918.152 74.0742 921.414 73.6836 924.773 73.6836C928.133 73.6836 931.395 74.0742 934.559 74.8555C937.762 75.6367 940.75 76.75 943.523 78.1953C946.336 79.6406 948.914 81.418 951.258 83.5273C953.602 85.5977 955.594 87.9414 957.234 90.5586C958.914 93.1758 960.223 96.0469 961.16 99.1719C962.098 102.258 962.566 105.539 962.566 109.016ZM942.41 109.016C942.41 107.141 942.293 105.168 942.059 103.098C941.863 100.988 941.512 98.9375 941.004 96.9453C940.496 94.9141 939.793 92.9805 938.895 91.1445C938.035 89.2695 936.961 87.6484 935.672 86.2812C934.383 84.875 932.84 83.7617 931.043 82.9414C929.246 82.082 927.156 81.6523 924.773 81.6523C922.508 81.6523 920.496 82.082 918.738 82.9414C916.98 83.8008 915.438 84.9531 914.109 86.3984C912.82 87.8047 911.727 89.4453 910.828 91.3203C909.969 93.1953 909.266 95.1484 908.719 97.1797C908.172 99.1719 907.781 101.203 907.547 103.273C907.312 105.305 907.195 107.219 907.195 109.016C907.195 110.812 907.312 112.746 907.547 114.816C907.781 116.848 908.172 118.879 908.719 120.91C909.266 122.941 909.969 124.895 910.828 126.77C911.727 128.605 912.82 130.246 914.109 131.691C915.438 133.098 916.98 134.23 918.738 135.09C920.496 135.949 922.508 136.379 924.773 136.379C927.117 136.379 929.188 135.969 930.984 135.148C932.781 134.289 934.324 133.156 935.613 131.75C936.941 130.344 938.035 128.723 938.895 126.887C939.754 125.051 940.438 123.117 940.945 121.086C941.492 119.055 941.863 117.004 942.059 114.934C942.293 112.863 942.41 110.891 942.41 109.016ZM1033.35 121.379C1033.35 124.348 1032.92 126.984 1032.06 129.289C1031.2 131.594 1030.03 133.605 1028.54 135.324C1027.06 137.004 1025.3 138.43 1023.27 139.602C1021.24 140.734 1019.05 141.652 1016.71 142.355C1014.4 143.059 1011.98 143.566 1009.44 143.879C1006.9 144.191 1004.38 144.348 1001.88 144.348C998.523 144.348 995.555 144.133 992.977 143.703C990.398 143.273 987.938 142.59 985.594 141.652C983.25 140.676 980.906 139.426 978.562 137.902C976.258 136.379 973.68 134.523 970.828 132.336L982.371 122.902C983.426 124.895 984.812 126.711 986.531 128.352C988.289 129.953 990.105 131.34 991.98 132.512C993.855 133.684 995.672 134.582 997.43 135.207C999.188 135.832 1000.61 136.145 1001.71 136.145C1002.61 136.145 1003.62 136.125 1004.75 136.086C1005.89 136.008 1007.04 135.891 1008.21 135.734C1009.38 135.539 1010.54 135.266 1011.67 134.914C1012.8 134.562 1013.8 134.094 1014.66 133.508C1015.55 132.883 1016.26 132.121 1016.77 131.223C1017.31 130.285 1017.59 129.172 1017.59 127.883C1017.59 126.555 1017.23 125.402 1016.53 124.426C1015.87 123.41 1014.99 122.531 1013.89 121.789C1012.8 121.047 1011.55 120.422 1010.14 119.914C1008.74 119.406 1007.31 118.957 1005.87 118.566C1004.46 118.176 1003.09 117.844 1001.77 117.57C1000.44 117.258 999.285 116.965 998.309 116.691C996.512 116.184 994.617 115.676 992.625 115.168C990.633 114.621 988.66 114.016 986.707 113.352C984.754 112.648 982.879 111.828 981.082 110.891C979.324 109.953 977.762 108.84 976.395 107.551C975.066 106.223 973.992 104.68 973.172 102.922C972.391 101.125 972 99.0352 972 96.6523C972 92.2773 972.859 88.625 974.578 85.6953C976.336 82.7266 978.641 80.3633 981.492 78.6055C984.344 76.8086 987.586 75.5391 991.219 74.7969C994.852 74.0547 998.543 73.6836 1002.29 73.6836C1004.87 73.6836 1007.59 73.957 1010.44 74.5039C1013.29 75.0117 1016.06 75.793 1018.76 76.8477C1021.45 77.8633 1023.97 79.1133 1026.32 80.5977C1028.66 82.082 1030.61 83.7812 1032.18 85.6953L1020.63 95.1875C1019.77 92.8438 1018.64 90.832 1017.23 89.1523C1015.87 87.4727 1014.36 86.1055 1012.72 85.0508C1011.12 83.957 1009.46 83.1562 1007.74 82.6484C1006.06 82.1406 1004.5 81.8867 1003.05 81.8867C1001.65 81.8867 1000.07 81.9453 998.309 82.0625C996.551 82.1797 994.891 82.5117 993.328 83.0586C991.805 83.6055 990.496 84.4453 989.402 85.5781C988.348 86.6719 987.82 88.1953 987.82 90.1484C987.82 91.5547 988.133 92.7656 988.758 93.7812C989.422 94.7578 990.281 95.6172 991.336 96.3594C992.391 97.0625 993.582 97.668 994.91 98.1758C996.277 98.6445 997.664 99.0742 999.07 99.4648C1000.48 99.8164 1001.84 100.129 1003.17 100.402C1004.5 100.676 1005.69 100.969 1006.75 101.281C1008.54 101.789 1010.44 102.316 1012.43 102.863C1014.46 103.371 1016.45 103.977 1018.41 104.68C1020.36 105.344 1022.23 106.145 1024.03 107.082C1025.87 107.98 1027.47 109.094 1028.84 110.422C1030.2 111.75 1031.3 113.312 1032.12 115.109C1032.94 116.867 1033.35 118.957 1033.35 121.379Z" fill="white"/>
</g>
</g>
<defs>
<filter id="filter0_d_198_15" x="-2" y="0" width="1058" height="272" filterUnits="userSpaceOnUse" color-interpolation-filters="sRGB">
<feFlood flood-opacity="0" result="BackgroundImageFix"/>
<feColorMatrix in="SourceAlpha" type="matrix" values="0 0 0 0 0 0 0 0 0 0 0 0 0 0 0 0 0 0 127 0" result="hardAlpha"/>
<feOffset dx="2" dy="4"/>
<feGaussianBlur stdDeviation="2"/>
<feComposite in2="hardAlpha" operator="out"/>
<feColorMatrix type="matrix" values="0 0 0 0 0 0 0 0 0 0 0 0 0 0 0 0 0 0 0.25 0"/>
<feBlend mode="normal" in2="BackgroundImageFix" result="effect1_dropShadow_198_15"/>
<feBlend mode="normal" in="SourceGraphic" in2="effect1_dropShadow_198_15" result="shape"/>
</filter>
<filter id="filter1_d_198_15" x="442.482" y="159.977" width="597.606" height="41.6035" filterUnits="userSpaceOnUse" color-interpolation-filters="sRGB">
<feFlood flood-opacity="0" result="BackgroundImageFix"/>
<feColorMatrix in="SourceAlpha" type="matrix" values="0 0 0 0 0 0 0 0 0 0 0 0 0 0 0 0 0 0 127 0" result="hardAlpha"/>
<feOffset dx="3" dy="2"/>
<feComposite in2="hardAlpha" operator="out"/>
<feColorMatrix type="matrix" values="0 0 0 0 0 0 0 0 0 0 0 0 0 0 0 0 0 0 0.25 0"/>
<feBlend mode="normal" in2="BackgroundImageFix" result="effect1_dropShadow_198_15"/>
<feBlend mode="normal" in="SourceGraphic" in2="effect1_dropShadow_198_15" result="shape"/>
</filter>
<filter id="filter2_d_198_15" x="21.5508" y="48.1953" width="1014.8" height="128.035" filterUnits="userSpaceOnUse" color-interpolation-filters="sRGB">
<feFlood flood-opacity="0" result="BackgroundImageFix"/>
<feColorMatrix in="SourceAlpha" type="matrix" values="0 0 0 0 0 0 0 0 0 0 0 0 0 0 0 0 0 0 127 0" result="hardAlpha"/>
<feOffset dx="3" dy="2"/>
<feComposite in2="hardAlpha" operator="out"/>
<feColorMatrix type="matrix" values="0 0 0 0 0 0 0 0 0 0 0 0 0 0 0 0 0 0 0.25 0"/>
<feBlend mode="normal" in2="BackgroundImageFix" result="effect1_dropShadow_198_15"/>
<feBlend mode="normal" in="SourceGraphic" in2="effect1_dropShadow_198_15" result="shape"/>
</filter>
</defs>
</svg>
